<?xml version="1.0" encoding="utf-8" ?>
<svg xmlns="http://www.w3.org/2000/svg" xmlns:xlink="http://www.w3.org/1999/xlink" width="118" height="59">
	<path fill="#42C83C" transform="scale(0.0576172 0.0576172)" d="M386.694 484.806L148.164 443.05L62.497 427.693C47.8548 425.009 32.2454 422.957 17.8963 419.032C14.7158 418.163 12.4348 416.978 10.8367 413.958C9.24425 410.949 9.50262 407.129 10.682 404.036C11.7 401.366 13.5703 399.007 16.1135 397.654C31.4378 389.504 53.3624 383.903 70.0325 378.17L180.573 340.022L817.241 114.114L1021.43 41.1741L1091.34 16.2876C1103.1 12.0511 1115.88 8.24705 1127.13 2.84535L1127.85 2.49578C1128.97 2.72236 1129.88 3.16659 1130.92 3.63507C1134.16 8.08552 1139.65 15.6847 1140.15 21.2231C1138.4 24.1978 797.616 232.35 760.737 256.365L770.141 256.266L1495.24 255.931L1703.73 255.846C1744.6 255.814 1795.31 252.616 1834.77 259.738C1888.01 269.243 1937.09 294.719 1975.5 332.78C2021.06 377.332 2046.95 438.227 2047.43 501.948C2047.82 564.887 2023.26 625.417 1979.12 670.286C1942.78 706.993 1896.19 731.861 1845.47 741.626C1797.36 751.213 1748.31 748.274 1699.55 748.406L1520.08 748.82L848.041 748.867C857.394 754.798 867.979 759.54 877.734 764.867L952.033 805.127L1184.59 932.561L1243.73 965.466C1251.93 970.063 1263.44 974.909 1270.29 981.176C1277.33 983.557 1303.94 997.733 1308.2 1003.19C1308.21 1003.36 1308.24 1003.53 1308.23 1003.7C1307.98 1007.69 1301.96 1016.37 1298.88 1018.85C1293.69 1014.5 1167.86 977.091 1148.58 970.994C888.253 887.688 627.078 807.052 365.097 729.101L114.132 654.472L41.8129 633.254C30.3749 629.927 17.119 627.501 6.42244 622.47C3.91609 621.291 2.3778 619.766 1.48824 617.065C0.526403 614.145 0.532143 609.666 2.04444 606.975C3.51038 604.367 6.21933 602.779 8.94565 601.774C29.1102 594.337 50.6224 588.804 71.1728 582.385L204.863 540.751L319.405 505.003C341.598 498.071 364.038 489.994 386.694 484.806ZM1042 57.0447C994.708 73.2962 947.626 90.16 900.768 107.632C886.796 112.774 857.063 121.842 845.796 128.453L843.978 129.009C843.756 128.495 843.166 128.25 842.645 128.457C842.124 128.664 841.863 129.247 842.054 129.774C842.183 130.128 842.495 130.384 842.867 130.443C843.24 130.501 843.615 130.352 843.846 130.054C844.077 129.756 844.127 129.356 843.978 129.009L845.796 128.453C857.192 127.048 869.722 121.855 880.794 118.447L956.685 94.7209C968.949 90.8311 981.337 85.8483 993.851 83.0077C988.505 88.0419 979.64 92.1476 973.315 95.9573L924.596 125.191L750.488 232.962L693.834 267.853C683.98 273.867 673.458 279.502 663.999 286.071C661.793 287.603 660.414 289.151 659.027 291.454L659.812 292.324C660.95 292.249 661.88 291.974 662.946 291.545C668.286 289.394 672.659 285.298 677.509 282.269L726.622 251.944L907.41 140.272C920.704 132.103 1040.65 60.1966 1042 57.0447C1042.25 57.5211 1042.83 57.7197 1043.32 57.4967C1043.81 57.2737 1044.04 56.7071 1043.84 56.207C1043.7 55.8589 1043.38 55.6149 1043.01 55.5726C1042.64 55.5302 1042.28 55.6965 1042.06 56.0049C1041.85 56.3132 1041.83 56.7132 1042 57.0447ZM656.992 194.971C635.052 200.317 613.316 209.9 591.984 217.463L462.797 263.398C329.562 311.153 196.062 358.166 62.3037 404.436C79.1906 408.586 96.575 411.119 113.668 414.329L192.795 429.328C212.375 432.974 232.283 437.644 252.08 439.716C238.676 435 224.881 431.443 211.297 427.28C184.513 419.071 157.706 410.717 131.087 401.99C174.919 383.109 220.403 367.065 264.911 349.751L548.344 238.792L619.849 210.296C630.668 206.041 647.726 201.27 656.992 194.971C657.139 195.327 657.467 195.576 657.849 195.622C658.231 195.669 658.608 195.507 658.837 195.197C659.066 194.888 659.11 194.479 658.953 194.127C658.714 193.595 658.093 193.352 657.557 193.583C657.021 193.814 656.77 194.432 656.992 194.971ZM1336.95 341.857C1328.71 337.612 1302.45 323.465 1293.91 326.489C1292.21 327.088 1292 327.551 1291.14 329.079C1294.8 335.64 1339.06 373.591 1346.99 378.799C1351.62 381.845 1357.78 382.641 1362.75 385.131C1365.55 386.535 1367.28 389.359 1370.33 390.204C1371.84 390.622 1372.39 390.169 1373.79 389.613C1374.97 387.142 1374.84 386.423 1373.9 383.841C1368.84 369.986 1355.8 355.2 1347.18 343.157C1347.38 343.217 1347.58 343.27 1347.78 343.336C1368.42 350.19 1393.56 392.648 1403.61 411.409C1405.41 414.784 1406.82 418.067 1410.64 419.218C1411.35 418.854 1412.8 418.412 1413.04 417.653C1414.25 413.833 1411.74 408.836 1410.13 405.402C1391.47 365.627 1369.41 346.458 1333.34 323.46C1325.33 318.354 1316.49 311.658 1307.46 308.556C1304.37 307.496 1302.32 307.196 1299.42 308.64L1298.83 310.883C1301.38 317.548 1312.52 321.623 1318.42 325.061C1324.02 328.322 1335.41 334.954 1336.87 341.402C1336.9 341.552 1336.92 341.705 1336.95 341.857ZM913.964 343.827C903.851 338.44 880.312 321.814 868.744 325.139L867.504 326.682C868.759 333.389 893.109 358.056 898.901 368.841C884.184 358.399 847.814 326.178 830.346 328.505C828.948 328.691 828.875 329.214 828.162 330.306C829.166 336.087 855.297 360.449 860.887 372.862C856.578 370.06 852.488 365.638 848.596 362.221C839.432 354.177 830.06 346.368 819.533 340.135C811.624 335.451 791.972 325.266 782.62 327.651C782.111 328.244 781.093 329.071 781.093 329.848C781.085 339.249 805.562 352.048 812.115 358.956L812.716 359.601L811.839 359.279C798.84 354.442 764.243 334.014 752.122 337.273L750.556 338.992C750.771 342.023 751.961 343.39 753.968 345.668C761.818 354.574 771.845 361.623 780.017 370.279C788.926 379.716 796.304 391.743 805.899 400.288C807.125 401.379 808.349 402.151 809.954 402.571L812.064 401.623C812.699 399.768 813.42 398.403 812.556 396.447C807.665 385.369 776.259 357.104 765.523 347.382C775.117 350.608 783.783 354.891 791.998 360.845C808.511 372.814 817.861 385.481 832.347 397.858C834.279 399.509 836.076 400.738 838.604 401.261L840.186 400.072C840.494 396.015 838.701 393.508 836.096 390.462C828.674 381.788 817.378 375.516 810.601 366.709C821.026 370.807 842.611 390.823 852.05 389.926C852.918 389.844 853.272 388.927 853.785 388.272C852.718 378.291 814.963 353.847 806.68 345.525L806.136 344.971C815.464 346.386 845.721 371.31 853.938 378.491C860.185 383.952 865.687 390.358 872.414 395.228C875.013 395.584 874.997 395.597 877.153 394.104C878.385 388.473 867.346 373.45 864.299 367.129C869.091 372.024 874.284 378.202 880.228 381.628C882.659 383.029 884.718 384.084 887.458 383.302C887.54 382.721 887.634 382.363 887.58 381.798C886.608 371.533 856.15 350.63 847.886 343.526C865.943 351.237 881.934 366.142 896.362 379.252C899.981 382.54 909.694 393.284 913.634 393.88C913.884 393.918 914.136 393.933 914.387 393.96L913.528 394.177L914.87 395.075C916.337 394.696 916.483 393.943 917.304 392.711C918.125 384.396 911.281 374.088 907.561 366.777C914.729 372.243 923.34 382.58 932.401 383.764L933.87 382.495C934.282 374.079 925.82 362.459 921.896 355.02C939.2 368.795 946.655 384.933 960.881 398.686C963.318 399.407 963.577 399.348 965.996 398.532L966.698 396.568C963.54 382.885 926.933 346.478 915.427 334.351C931.633 345.29 946.684 357.851 960.347 371.839C965.745 377.316 981.516 398.295 986.862 400.492C989.232 400.168 989.392 400.349 990.864 398.511C990.934 397.581 990.888 396.68 990.62 395.777C989.068 390.547 983.444 384.869 979.863 380.837C957.363 355.5 929.732 333.342 900.569 316.023C896.554 313.639 890.095 309.612 885.357 310.975C884.531 311.213 884.296 312.139 883.877 312.851C887.053 323.246 907.281 332.497 913.591 343.177C913.718 343.392 913.84 343.61 913.964 343.827ZM993.132 348.151L993.896 348.376C1011.1 353.617 1028.86 371.402 1040.72 384.225C1044.28 388.062 1047.41 392.96 1051.34 396.336C1052.83 397.619 1054.24 398.27 1056.21 398.489L1058.44 397.167C1059.1 394.145 1058.4 392.359 1056.74 389.751C1042.53 367.433 1003.33 341.03 978.214 333.15C974.927 332.864 973.094 332.823 970.089 334.415C969.19 336.159 968.718 336.656 969.423 338.662C970.617 342.059 1012.48 374.688 1019.17 382.645C1024.71 389.235 1029.86 401.499 1037.74 404.918C1039.13 405.519 1039.4 405.349 1040.85 404.999C1041.82 402.479 1041.35 400.271 1040.31 397.859C1034.87 385.19 1017.39 369.44 1006.96 360.414C1002.44 356.502 996.977 352.674 993.132 348.151ZM1236.85 362.911C1226.21 353.465 1195.67 331.603 1181.04 332.646C1178.3 332.841 1177.7 333.451 1175.71 335.177C1175.3 337.914 1175.39 339.029 1177.14 341.292C1181.18 346.508 1188.2 350.763 1193.17 355.166C1199.77 361.015 1205.75 367.456 1211.6 374.041C1217.64 380.83 1226.39 395.193 1233.34 399.514C1235.85 399.412 1235.97 399.209 1237.92 397.575C1238.34 394.972 1237.21 392.999 1235.76 390.94C1225.51 376.312 1207.26 352.532 1190.68 346.053C1212.27 350.996 1231 366.617 1244.19 383.96C1248.16 389.182 1251.2 395.871 1255.87 400.409C1258.36 402.828 1259.12 402.79 1262.39 402.277C1263.45 398.406 1259.75 391.28 1257.88 388.034C1252.95 379.474 1245 371.197 1238.1 364.123C1249.2 367.286 1262.87 387.074 1274.49 389.635C1276.64 390.11 1276.93 389.817 1278.72 388.769C1279.18 387.63 1279.46 386.532 1279.3 385.291C1278.43 378.706 1272.92 369.538 1267.59 365.653C1281.82 372.008 1297.98 397.416 1306.15 398.025C1306.72 397.321 1307.3 396.9 1307.41 395.981C1307.78 392.994 1307.2 390.861 1305.36 388.512C1299.59 381.136 1292.57 373.901 1285.37 367.907C1272.76 357.412 1228.52 326.233 1213.67 324.754C1211.38 324.525 1211.03 324.808 1209.3 326.177C1208.28 339.599 1232.17 350.796 1236.7 362.47C1236.75 362.615 1236.8 362.764 1236.85 362.911ZM1309.17 365.119C1309.35 365.177 1309.53 365.23 1309.71 365.294C1323.2 370.146 1340.4 397.598 1349.48 399.497C1350.43 398.377 1350.93 398.178 1350.78 396.623C1349.88 387.21 1328.03 367.6 1320.4 361.828C1312.71 356.012 1296.88 345.444 1287.69 342.264C1287.54 342.097 1287.4 341.929 1287.24 341.765C1280.86 334.886 1269.73 326.341 1260.08 326.069C1258.56 326.026 1257.24 326.457 1255.87 327.078C1254.55 328.965 1254.08 329.52 1254.46 331.963C1256.42 344.571 1288.94 367.736 1299.64 375.035C1303.97 377.991 1309.12 381.272 1314.48 381.534C1315.13 381.161 1316.43 380.684 1316.61 379.966C1317.25 377.407 1315.91 374.633 1314.53 372.532C1312.86 369.987 1311 367.548 1309.17 365.119ZM1088.16 369.066L1088.84 369.184C1095.78 370.455 1114.35 380.434 1119.55 379.067C1121.05 377.863 1121.76 376.83 1122.98 375.471C1123.25 375.17 1123.78 374.901 1124.14 374.699C1129.48 380.083 1138.79 397.374 1145.45 398.84C1147.85 397.807 1147.83 397.87 1148.84 395.474C1147.54 385.215 1107.84 345.329 1097.68 337.456C1097.05 336.971 1096.37 336.552 1095.68 336.156C1116.28 343.587 1133.3 360.902 1147.88 376.721C1151.72 380.89 1156.06 387.313 1160.45 390.661C1161.94 391.799 1163.9 390.998 1165.42 390.526C1166.44 388.418 1166.62 387.978 1165.75 385.624C1163.87 380.534 1158.41 375.268 1154.75 371.305C1138.42 353.633 1120.01 337.083 1097.7 327.414C1093.38 325.54 1089.15 323.666 1084.39 324.864C1082.59 326.642 1082.76 326.702 1082.7 329.262C1087.35 340.291 1118.99 363.957 1119.26 370.987C1102.1 362.104 1064.09 326.234 1049.02 324.978C1046.36 324.757 1045.52 325.438 1043.6 327.032C1039.38 340.139 1058.86 343.248 1060.56 353.869C1060.58 354.04 1060.59 354.213 1060.61 354.385C1057.66 351.993 1053.07 350.711 1049.68 348.82C1036.86 341.678 1024.26 333.454 1010.84 327.472C1006.85 325.693 1001.35 323.496 997.028 325.144L996.344 326.9C997.351 330.47 999.951 333.179 1002.6 335.657C1012.28 344.698 1024.17 352.386 1034.81 360.313C1045.09 367.975 1055.22 376.476 1066 383.364C1069.76 385.766 1074.33 388.706 1078.87 387.699L1079.53 385.408C1077.51 376.909 1069.01 364.441 1062.04 359.239C1061.8 359.058 1061.55 358.884 1061.31 358.707C1076.7 365.109 1085.37 379.539 1096.8 390.896C1098.82 392.903 1100.27 395.144 1103.21 395.132C1105.16 393.674 1104.91 393.468 1105.3 391.18C1102.77 382.583 1094.25 375.44 1088.16 369.066ZM1301.95 646.159C1301.8 653.683 1292 660.203 1291.95 668.427L1293.52 668.859C1305.59 663.66 1322.87 647.572 1331.85 638.157C1331.83 638.34 1331.82 638.525 1331.8 638.708C1330.21 650.126 1314.9 663.768 1306.48 670.597C1304.08 672.547 1299.46 675.099 1297.81 677.577C1296.8 679.09 1297.42 679.699 1297.99 681.184C1300.69 682.296 1302.08 682.345 1304.84 681.238C1323.02 673.955 1337.72 657.989 1349.83 643.159C1349.84 643.374 1349.86 643.59 1349.86 643.805C1349.88 655.255 1326.08 678.639 1316.91 684.928C1312.24 688.134 1303.8 691.234 1300.17 695.138C1298.98 696.419 1299.27 696.954 1299.44 698.55L1301 699.791C1306.13 699.975 1311.17 697.316 1315.7 695.165C1367.23 670.73 1400.7 637.598 1419.47 582.813C1420.72 579.178 1422.2 573.439 1420.44 569.857L1418.71 569.471C1417.95 569.909 1416.64 570.432 1416.02 571.011C1412.61 574.226 1403.83 600.126 1400.89 606.127C1388.28 631.859 1365.69 664.225 1337.33 673.93C1338.2 673.441 1339.05 672.917 1339.9 672.397C1353.3 664.252 1383.33 628.591 1389.51 614.436C1390.87 611.311 1391.45 609.122 1390.18 605.925L1388.47 605.305C1376.93 610.682 1371.26 635.954 1357.44 642.57C1357.2 642.685 1356.96 642.794 1356.71 642.906C1360.45 638.518 1368.3 627.766 1367.66 621.993C1367.46 620.125 1366.82 619.899 1365.43 618.841C1356.38 619.639 1348.61 638.361 1339.66 642.601C1339.47 642.688 1339.28 642.762 1339.1 642.842C1341.85 636.525 1346.67 628.338 1344.92 621.271L1344.68 621.092C1347.91 618.069 1351.45 615.469 1351.66 610.721C1351.73 608.983 1351.47 608.654 1350.66 607.198C1348.2 607.072 1347.1 607.644 1345.21 609.286C1336.13 617.199 1322.2 644.223 1310.18 646.849C1313.71 641.717 1320.54 634.139 1321.17 627.875C1321.39 625.628 1321.11 625.437 1319.79 623.762C1307.63 623.056 1296.84 645.598 1285.74 651.021C1285.47 651.153 1285.2 651.277 1284.93 651.405C1291.56 645.82 1291 639.192 1295.38 632.595C1300.22 625.299 1308.52 620.535 1311.89 612.153C1311.76 609.324 1311.75 608.938 1310.08 606.677C1301.93 607.652 1277.28 641.771 1263.75 646.769C1263.56 646.841 1263.36 646.9 1263.16 646.965C1268.4 639.982 1283.03 623.791 1282.12 615.03C1282.06 614.377 1282.08 614.619 1281.59 613.942C1279.06 613.542 1277.42 613.772 1275.21 615.246C1270.05 618.685 1265.4 625.642 1260.73 630.017C1244.43 645.311 1233.37 650.62 1212.26 657.542C1207.6 659.069 1202.08 661.53 1197.2 661.822C1210.15 650.876 1234.64 626.081 1239.43 609.897C1240.25 607.15 1240.41 606.028 1239.05 603.515C1237.4 603.651 1236.64 603.703 1235.2 604.599C1228.52 608.769 1217.12 628.798 1210.73 636.239C1204.16 643.894 1183.12 662.675 1179.47 668.788C1179.22 669.196 1179.13 670.298 1179.02 670.804C1180.89 672.3 1182.77 672.406 1185.15 672.337C1194.53 672.062 1228.5 660.865 1234.71 654.615C1233.38 663.482 1214.85 675.392 1208.74 682.687L1209.64 684.114C1211.23 684.365 1212.42 684.277 1213.94 683.808C1226.74 679.871 1277.76 650.162 1283.69 638.874C1283.13 653.754 1263.66 662.646 1259.41 676.014L1260.57 677.657C1261.45 677.941 1262.36 678.185 1263.3 678.159C1273.03 677.891 1295.65 653.362 1301.95 646.159ZM858.025 636.762C854.027 643.601 829.381 671.895 829.438 674.974C830.552 676.012 830.84 676.551 832.433 676.69C847.324 677.983 888.302 649.582 900.841 639.124C896.018 649.756 889.477 658.034 881.173 666.19C877.783 669.519 873.505 673.085 870.806 676.988C869.686 678.608 869.553 678.949 870.024 680.821C879.116 683.595 908.042 666.718 917.871 663.131C911.04 670.791 903.616 677.102 894.969 682.65C891.109 685.127 883.53 688.334 881.41 692.346C881.866 694.711 881.936 694.763 883.795 696.305C895.94 697.298 944.871 662.863 955.855 653.571C968.088 643.223 989.599 623.728 990.895 606.851C991.028 605.113 991.091 603.218 990.031 601.756C986.771 602.35 984.91 604.687 983.076 607.382C979.13 613.18 976.021 619.469 971.848 625.127C959.7 641.598 938.747 661.566 920.178 670.078C923.527 665.456 928.497 661.246 932.526 657.151C944.733 644.745 957.363 630.32 963.173 613.603C964.051 611.079 964.707 608.709 963.526 606.18C954.821 603.52 948.379 624.591 943.057 630.84C928.395 648.056 908.169 659.077 888.302 669.133C898.61 657.913 924.446 645.433 930.329 633.02C931.552 630.44 931.224 628.821 930.231 626.313L928.257 625.871C919.487 628.991 912.039 641.435 904.508 647.533C908.983 636.459 917.25 627.026 920.248 615.238C920.933 612.546 921.164 610.812 919.68 608.393C914.351 609.05 890.694 640.573 877.891 647.438L877.121 647.843C880.483 642.471 890.577 631.172 889.254 624.911L887.452 622.848C884.583 622.744 883.263 623.326 881.147 625.336C872.455 633.59 864.729 649.397 859.631 660.24C855.859 661.732 851.12 664.32 847.154 664.848C856.562 653.935 878.223 622.918 880.692 610.554C881.217 607.928 880.98 607.035 879.467 604.896C873.911 604.128 869.408 613.224 865.929 617.323C852.355 633.321 828.048 653.258 808.892 662.532L808.027 662.943C817.486 652.053 848.653 631.622 853.258 618.726C854.013 616.613 853.533 614.824 852.558 612.905L850.452 612.265C849.153 612.729 847.897 613.287 846.75 614.062C839.993 618.632 835.702 626.557 829.706 632.002C821.375 639.565 778.846 672.442 777.281 680.834L779.112 681.968C798.489 681.38 841.182 649.034 858.025 636.762ZM1065.17 642.923C1069.2 637.257 1078.02 627.541 1077.29 620.472C1076.75 619.878 1076.13 618.841 1075.32 618.797C1067.65 618.38 1043.91 640.586 1032.22 644.618C1040.23 639.257 1054.54 623.346 1056.35 613.731C1056.66 612.076 1056.45 610.656 1055.93 609.059L1055.39 608.471C1052.66 608.389 1051.48 608.805 1049.4 610.675C1044.84 614.774 1041.41 621.436 1037.8 626.391C1023.17 646.508 1012.48 654.54 989.67 663.528C1003.81 652.292 1038.36 624.556 1040.61 606.422C1040.78 605.029 1040.59 603.892 1040.14 602.579C1038.34 601.193 1038.11 601.009 1035.85 600.892C1026.57 612.381 1019.9 625.133 1009.76 636.165C1001.23 645.447 972.964 665.291 969.036 673.941C970.38 675.485 970.433 675.6 972.49 675.706C980.696 676.126 1021.5 660.253 1027.17 655.004C1027.42 654.767 1027.66 654.515 1027.9 654.258C1027.85 654.444 1027.8 654.633 1027.74 654.816C1024.34 664.469 1000.61 671.541 998.566 680.592C1000.52 682.044 1001.72 682.058 1004.1 681.713C1018.06 679.68 1066.98 657.187 1074.9 645.053C1075.23 644.553 1075.46 643.992 1075.66 643.432C1075.62 643.664 1075.59 643.898 1075.55 644.129C1073.18 656.447 1044.45 672.266 1045.14 679.843C1049.65 681.427 1058.51 676.389 1062.68 674.38C1081.2 665.443 1098.64 653.531 1117.27 645.047C1117.22 645.195 1117.17 645.345 1117.1 645.49C1112.45 656.146 1089.64 665.484 1083.93 675.994C1084.66 677.21 1084.77 677.917 1086.22 678.307C1092.83 680.082 1106.27 673.086 1111.92 669.489C1118.57 665.255 1134.79 656.351 1137.91 649.484C1137.86 649.707 1137.81 649.932 1137.75 650.154C1134.98 660.902 1111.86 678.866 1103.02 685.144C1099.25 687.818 1092.88 690.806 1089.98 694.24C1088.84 695.6 1089.23 696.155 1089.51 697.705C1093.85 699.181 1098.47 696.482 1102.4 694.54C1131.47 680.182 1187.07 643.249 1197.82 611.695C1198.84 608.7 1200.49 603.124 1199.18 600.041C1198.91 599.402 1198.41 599.308 1197.83 599C1194.85 599.723 1193.2 601.425 1191.63 603.952C1187.52 610.6 1184.22 617.721 1179.83 624.214C1172.36 635.273 1151.17 660.167 1138.11 663.849C1142.73 658.429 1168.16 627.934 1168.43 624.542C1167.84 622.416 1168.04 622.114 1166.09 620.907C1154.31 623.048 1134.95 647.179 1119.82 653.413L1119.33 653.611C1121.89 652.233 1124.33 650.757 1126.28 648.572C1129.38 645.103 1149.13 616.721 1150.82 612.403C1151.83 609.829 1152.18 607.887 1151.08 605.35C1147.96 604.506 1145.48 607.18 1143.41 609.302C1136.59 616.323 1131.59 625.377 1124.55 632.151C1117.85 638.608 1077.21 661.385 1067.59 664.626C1067.28 664.73 1066.97 664.828 1066.66 664.929C1075.35 659.509 1102.78 624.048 1104.64 614.933C1105.19 612.201 1104.63 611.398 1103.15 609.24C1102.33 608.977 1100.96 608.219 1100.22 608.709C1097.99 610.187 1095.79 614.013 1094.12 616.163C1086.86 625.531 1077.17 638.239 1065.8 642.696C1065.59 642.777 1065.38 642.847 1065.17 642.923ZM865.9 784.122C865.666 784.458 865.747 784.92 866.083 785.155C866.418 785.389 866.88 785.309 867.116 784.974L868.365 785.472C874.134 791.994 904.245 808.549 913.739 814.282C957.403 840.427 1001.22 866.314 1045.19 891.94C1068.76 905.683 1093.54 918.714 1116.21 933.838C1117.65 934.801 1118.46 935.662 1119.26 937.228C1109.29 932.264 1097.2 929.568 1086.53 926.236L1025.96 907.267C951.186 884.223 876.545 860.748 802.041 836.841C575.181 761.602 349.232 683.643 124.243 602.982C143.427 593.685 165.741 588.164 185.853 580.885L351.85 522.154C366.401 516.972 399.709 507.243 410.809 499.982L410.036 497.656L410.906 499.647L408.039 500.748L407.603 498.387L407.557 500.312C387.293 505.275 367.336 512.174 347.428 518.436C323.873 525.846 300.216 532.894 276.783 540.692C200.127 563.84 123.761 588.266 47.4727 612.604C76.7009 619.442 105.673 629.438 134.461 638.028L297.05 686.461C497.201 745.957 696.912 806.925 896.166 869.358L1117.59 938.514L1167.15 954.205C1175.34 956.827 1184.82 959.006 1192.38 963.119C1191.59 961.934 1190.73 960.783 1189.53 959.986C1176.47 951.355 1161.51 944.153 1147.83 936.415C1107.23 913.875 1066.45 891.677 1025.48 869.825L922.898 814.367C905.022 804.716 886.936 793.537 868.365 785.472L867.116 784.974C867.352 784.638 867.271 784.174 866.935 783.938C866.598 783.703 866.134 783.785 865.9 784.122ZM659.777 193.52C659.757 193.791 659.89 194.05 660.122 194.192C660.354 194.334 660.646 194.334 660.878 194.192C661.11 194.05 661.243 193.791 661.223 193.52C661.194 193.142 660.879 192.849 660.5 192.849C660.121 192.849 659.806 193.142 659.777 193.52ZM727.379 276.992C720.695 280.632 713.793 284.103 707.548 288.464C729.188 288.061 750.823 288.716 772.465 288.722C821.55 288.499 870.636 288.522 919.72 288.791L1279.57 288.802L1457.49 288.829C1494.47 288.81 1535.56 285.869 1571.82 292.181C1610.03 298.613 1645.36 316.564 1673.08 343.631C1700.51 370.037 1718.48 405.879 1727.23 442.673C1729.49 452.194 1728.98 463.37 1732.05 472.336C1733.14 475.517 1734.3 476.284 1737.36 477.195C1739.55 476.576 1740.7 476.475 1741.73 474.2C1748.45 459.361 1725.12 401.203 1717.48 385.061C1706.32 361.478 1687.04 337.231 1666.1 321.727C1658.49 316.089 1648.05 310.971 1641.7 304.135C1638.75 300.965 1636.76 297.607 1638.44 293.22C1639.21 291.213 1641.5 289.159 1643.45 288.321C1650.53 285.274 1776.12 286.959 1793.1 287.554C1803.1 287.943 1813.06 288.813 1822.97 290.163C1843.41 293.011 1863.36 298.688 1882.24 307.029C1936.86 330.637 1979.97 372.227 2001.93 427.855C2021.32 476.961 2019.38 537.383 1998.25 585.585C1975.42 637.695 1929.23 679.162 1876.44 699.639C1856.21 707.263 1835.17 712.549 1813.74 715.393C1783.86 719.087 1752.15 717.173 1722.07 717.072C1699.35 716.995 1675.96 718.341 1653.31 717.178C1649.92 717.004 1646.23 716.578 1643.08 715.235C1641.02 714.357 1639.78 713.233 1639.01 711.133C1638.18 708.873 1638.36 706.149 1639.44 704.005C1640.15 702.605 1641.16 701.275 1642.37 700.268C1647.11 696.331 1653.09 693.36 1658.17 689.806C1666.71 683.837 1674.69 676.752 1682.15 669.491C1700.43 651.69 1714.43 631.617 1725.93 608.907C1728.77 603.289 1734.89 593.3 1733.14 586.957C1732.66 585.198 1731.94 584.986 1730.49 584.078C1727.86 584.207 1726.75 583.943 1724.87 586.023C1720.6 590.736 1717.62 601.914 1714.62 608.037C1711.72 613.886 1708.5 619.571 1704.98 625.066C1670.03 679.943 1617.36 710.987 1552.65 716.432C1520.57 719.131 1487.56 717.726 1455.36 717.69L1285.75 717.28L899.076 716.872C883.362 716.872 788.583 715.281 781.306 717.849L780.889 719.369C785.442 725.775 801.632 732.554 809.155 735.197C810.174 733.335 810.647 731.609 811.095 729.542C819.802 724.317 931.833 727.167 948.144 727.182L1556.4 727.212L1714.71 727.129C1745.21 727.157 1776.26 728.464 1806.65 725.971C1827.97 724.044 1848.98 719.586 1869.25 712.692C1942.01 687.999 2001.04 629.337 2019.97 554.1C2033.95 499.016 2025.44 440.637 1996.32 391.834C1964.11 338.24 1907.14 299.371 1846.91 284.397C1801.18 273.026 1745.35 277.352 1697.92 277.379L1522.89 277.55L1018.38 277.553L838.678 277.603C801.614 277.598 764.425 278.078 727.379 276.992ZM1090.65 310.48C1090.21 313.392 1089.95 314.27 1091.21 317.044C1097.65 321.291 1104.82 324.357 1111.39 328.434C1129.27 339.619 1146.01 352.515 1161.39 366.94C1165.77 371.054 1190.83 400.052 1193.65 400.869L1195.13 400.511L1197.49 398.703C1198.02 393.975 1195.35 391.174 1192.52 387.617C1172.36 362.296 1146.91 341.698 1120.45 323.373C1113.86 318.803 1103.37 310.777 1095.18 309.945C1093.68 309.792 1092.11 310.146 1090.65 310.48ZM1743.97 345.498C1743.65 348.204 1743.14 349.607 1744.93 351.998C1749.4 357.959 1756.68 363.265 1762.05 368.559C1776.93 383.222 1787.14 399.911 1795.41 419C1797.36 423.516 1800.29 434.406 1805.17 435.073C1806.42 434.099 1807.6 433.682 1807.81 432.037C1809.57 417.938 1785.99 382.13 1776.9 371.292C1769.72 362.732 1758.7 349.309 1747.96 345.253L1743.97 345.498ZM1766.76 345.498C1766.1 347.811 1765.28 349.015 1766.52 351.287C1769.75 357.205 1791.68 374.376 1798 381.851C1808.12 393.822 1814.68 412.159 1820.45 426.636C1821.71 429.797 1822.75 434.575 1826.38 435.584C1827.69 434.87 1829.1 434.561 1829.52 433.049C1831.85 424.813 1815.83 394.226 1810.83 386.307C1804.7 376.586 1781.98 348.015 1770.92 345.52C1769.64 345.23 1768.07 345.394 1766.76 345.498ZM1791.53 345.499C1789.5 347.236 1789.09 347.268 1788.69 349.861C1793.26 359.24 1808.86 367.153 1815.65 376.107C1821.43 383.718 1826.52 392.246 1830.91 400.726C1833.91 406.523 1843.43 432.955 1847.11 435.263C1848.51 434.753 1850.37 434.584 1850.96 433.115C1853.66 426.421 1843.11 406.474 1840.16 400.455C1832.83 385.534 1810.34 351.119 1794.03 345.814C1793.18 345.535 1792.42 345.515 1791.53 345.499ZM1812.21 345.499C1811.53 347.28 1810.7 348.366 1811.55 350.232C1814.04 355.725 1839.72 375.817 1846.52 387.674C1851.94 397.115 1856.45 407.304 1860.43 417.426C1862.38 422.382 1863.95 428.578 1866.58 433.11C1867.53 434.731 1868.32 434.983 1870.05 435.503C1871.37 434.632 1872.67 434.288 1872.95 432.645C1875.16 419.96 1854.84 385.003 1846.77 374.478C1840.8 366.681 1825.21 347.009 1814.84 345.58C1813.96 345.459 1813.09 345.462 1812.21 345.499ZM1835.04 345.498C1833.65 347.793 1833.51 347.841 1833.94 350.467C1838.67 356.639 1844.9 361.826 1850.37 367.351C1862.57 379.678 1871.33 393.448 1878.07 409.398C1880.98 416.298 1884.73 432.577 1891.32 435.738C1892.6 434.906 1894.06 434.449 1894.43 432.889C1896.85 422.806 1878.41 389.195 1872.35 380.248C1866.98 372.337 1847.73 347.77 1838.28 345.651C1837.22 345.414 1836.11 345.437 1835.04 345.498ZM1855.88 345.498C1855.29 347.526 1854.1 349.795 1855.44 351.74C1858.04 355.522 1863.45 359.409 1866.82 362.569C1878.26 373.3 1888.22 384.967 1895.06 399.188C1899.55 408.513 1904.68 426.067 1909.39 433.252C1910.46 434.888 1911.3 435.396 1913.22 435.534C1913.29 435.539 1913.36 435.513 1913.42 435.502L1916.27 433.529C1918.54 420.247 1898.72 387.134 1891.03 376.295C1886.05 369.274 1868.12 346.601 1859.28 345.428C1858.15 345.279 1857.01 345.372 1855.88 345.498ZM1877.56 345.498C1876.72 347.288 1875.77 348.314 1876.56 350.292C1878.23 354.443 1903.09 376.726 1908.31 384.073C1913.16 390.914 1917.42 399.818 1920.85 407.471C1923.65 413.733 1927.91 431.172 1932.16 434.986L1934.38 435.533C1935.72 434.629 1936.97 434.313 1937.22 432.626C1939.36 418.713 1918.63 383.334 1909.83 372.197C1904.97 366.055 1887.96 346.27 1880.21 345.527C1879.32 345.442 1878.44 345.46 1877.56 345.498ZM1900.75 345.498C1899.35 347.873 1899.3 348.062 1899.6 350.801C1902.68 355.511 1907.14 359.272 1911.15 363.189C1922.26 374.046 1931.24 383.518 1937.94 397.668C1941.92 406.073 1948.82 428.485 1952.4 433.446C1953.52 434.986 1954.21 435.282 1956.09 435.613C1956.18 435.629 1956.28 435.617 1956.37 435.618C1957.69 434.674 1958.92 434.316 1959.14 432.627C1961.06 418.122 1937.14 378.699 1927.51 367.031C1922.89 361.442 1910.58 346.168 1902.91 345.508C1902.19 345.446 1901.48 345.465 1900.75 345.498ZM1922.6 345.498C1921.2 347.974 1920.87 348.203 1921.28 350.971C1927.53 357.491 1934.48 363.286 1940.72 369.798C1956.45 386.213 1964.5 405.982 1971.13 427.424C1972.36 431.421 1972.73 434.774 1977.13 436.037C1978.49 435.11 1979.82 434.724 1980.13 433.033C1982.59 419.964 1963.28 385.368 1955.46 374.668C1950.81 368.308 1933.65 346.665 1925.76 345.571C1924.71 345.425 1923.66 345.445 1922.6 345.498ZM1415.98 346.496C1415.52 349.585 1415.03 351.004 1417.11 353.734C1422.04 360.19 1439.81 370.003 1440.09 377.72L1437.37 379.058C1435.6 384.29 1445.05 412.333 1447.94 418.14C1449.22 420.713 1449.8 421.248 1452.39 422.399L1454.24 421.918C1455.73 419.181 1455.05 416.108 1454.21 413.272C1451.2 403.135 1448.2 388.931 1441.38 380.754C1445.89 383.722 1453.95 393.555 1454.69 399.026C1454.75 399.472 1454.67 400.082 1454.63 400.501C1454.79 400.646 1454.96 400.786 1455.12 400.938C1463.46 408.987 1464.71 427.341 1470.24 433.819C1471.44 435.225 1473.03 435.095 1474.72 435.342C1476.33 434.132 1476.55 434.082 1476.8 432.083C1478.62 417.16 1451.64 376.861 1441.91 365.576C1437.48 360.43 1425.8 346.832 1418.79 346.425C1417.85 346.371 1416.92 346.423 1415.98 346.496ZM1441.2 346.496C1440.54 348.278 1439.75 349.335 1440.55 351.199C1442.06 354.683 1468.17 380.969 1473.78 389.778C1480.5 400.318 1488.35 427.731 1493.88 434.184C1495.29 434.597 1495.76 434.819 1497.22 434.505C1498.66 433.229 1499.35 433.105 1499.45 431.105C1500.35 412.407 1472.56 372.162 1459.59 358.701C1456.22 355.21 1448.23 346.49 1443.27 346.419C1443.09 346.417 1442.9 346.435 1442.71 346.437C1442.4 346.441 1442.09 346.427 1441.78 346.439C1441.59 346.447 1441.4 346.477 1441.2 346.496ZM1462.97 346.496C1462.41 348.887 1461.85 349.586 1463.1 351.778C1465.16 355.389 1470.21 359.18 1473.2 362.153C1481.02 369.922 1490.08 378.839 1495.81 388.325C1500.94 396.829 1513.97 431.834 1517.14 434.642C1518.29 434.784 1519.32 434.996 1520.45 434.602C1521.65 433.394 1522.39 433.129 1522.39 431.354C1522.36 410.768 1493.75 369.06 1478.77 354.951C1475.49 351.852 1469.69 345.927 1465.05 346.204C1464.35 346.247 1463.66 346.364 1462.97 346.496ZM1486.68 346.496C1486.29 349.22 1485.87 350.591 1487.75 352.882C1492.97 359.236 1499.49 364.781 1504.96 370.984C1521.69 389.929 1527.02 404.567 1535.44 427.424C1536.63 430.648 1537.23 433.955 1540.86 434.908L1542.09 434.506C1543.84 432.6 1544.41 432.293 1544.33 429.612C1543.71 407.88 1515.5 366.557 1499.57 352.133C1497.31 350.089 1492.97 345.841 1489.79 346.026C1488.74 346.087 1487.71 346.283 1486.68 346.496ZM1510.09 346.497C1509.59 349.269 1509.23 350.269 1510.86 352.689C1514.22 357.713 1520.18 362.438 1524.43 366.765C1537.17 379.733 1544.31 391.958 1551.27 408.646C1553.67 414.395 1557.85 432.177 1562.36 434.915L1564.26 434.927C1565.95 433.493 1566.85 433.263 1566.99 430.95C1568.05 412.482 1541.34 371.508 1528.74 357.849C1525.57 354.413 1518.2 346.367 1513.59 346.056C1512.43 345.978 1511.21 346.235 1510.09 346.497ZM1532.73 346.496C1532.42 349.587 1532.38 350.831 1534.44 353.284C1548.68 370.204 1563.54 382.901 1572.07 404.038C1574.02 408.867 1582.07 435.109 1586.02 434.916C1586.62 434.886 1586.93 434.746 1587.46 434.561C1589.02 433.094 1589.58 432.934 1589.68 430.701C1589.85 426.673 1587.58 420.846 1586.27 416.995C1578.48 394.076 1566.25 372.16 1548.92 355.049C1545.98 352.15 1539.96 346.047 1535.82 346.049C1534.77 346.05 1533.74 346.262 1532.73 346.496ZM1555.69 346.497C1556.32 355.389 1568.11 363.99 1573.94 370.673C1580.41 378.098 1587.47 387.46 1591.76 396.347C1595.9 404.924 1601.74 428.966 1606.9 434.237C1607.63 434.383 1608.57 434.722 1609.31 434.504C1611.23 432.597 1611.88 432.283 1611.83 429.423C1611.47 407.823 1584.97 366.706 1569.29 352.213C1566.98 350.077 1562.71 345.894 1559.41 345.956C1558.16 345.979 1556.91 346.235 1555.69 346.497ZM1578.65 346.496C1578.69 347.596 1578.51 349.478 1578.78 350.498C1579.43 352.954 1593.99 367.104 1596.58 370.201C1607.52 383.281 1615.94 398.277 1621.41 414.428C1623.55 420.727 1624.47 428.29 1628.05 433.916L1630.03 435.066C1630.82 434.753 1631.63 434.555 1632.25 433.967C1633.83 432.087 1634.35 431.956 1634.14 429.403C1632.17 405.347 1607.54 365.066 1588.99 349.634C1585.84 347.014 1584.01 345.991 1579.9 346.333C1579.48 346.367 1579.07 346.43 1578.65 346.496ZM1602.86 346.497C1602.38 348.828 1601.77 350.057 1603.1 352.213C1607.06 358.614 1614.35 364.477 1619.24 370.395C1633.1 387.182 1639.94 404.446 1646.85 424.675C1647.72 427.225 1649.32 434.052 1652.11 434.555C1653.33 434.775 1652.84 434.776 1653.97 434.504C1655.26 433.401 1656.32 433.001 1656.51 431.237C1658.35 414.489 1633.76 373.367 1622.6 360.343C1619.27 356.451 1611.1 346.811 1605.81 346.358C1604.83 346.274 1603.83 346.383 1602.86 346.497ZM1626.31 346.498C1625.56 348.317 1624.74 349.3 1625.54 351.24C1627.74 356.604 1649.26 378.272 1654.84 388.396C1660.42 398.533 1669.39 430.11 1673.75 434.687L1676.3 434.883C1677.96 433.442 1678.78 433.235 1678.93 430.946C1680.2 411.902 1655.17 371.259 1642.46 357.263C1639.27 353.743 1633.07 346.676 1628.21 346.428C1627.55 346.394 1626.97 346.43 1626.31 346.498ZM1721.52 346.498C1721.6 350.609 1721.94 352.038 1725.01 355.004C1744.94 374.272 1757.69 387.341 1769.96 412.669C1771.84 416.531 1778.13 433.569 1780.76 434.664L1782.76 435.502C1784.04 434.64 1785.46 434.207 1785.73 432.605C1787.87 419.845 1765.7 386.48 1757.9 376.412C1750.52 366.891 1737.8 350.225 1725.96 346.079L1721.52 346.498ZM1654.8 354.497C1654.28 357.077 1653.71 358.533 1655.35 360.847C1663.62 372.514 1673.56 382.214 1680.41 395.047C1684.82 403.32 1691.16 430.378 1697.03 434.979L1699.27 434.503C1700.56 433.379 1701.43 433.113 1701.56 431.324C1702.81 414.556 1679.95 375.34 1668.62 362.842C1666.17 360.13 1661.48 354.588 1657.8 354.307C1656.8 354.23 1655.79 354.351 1654.8 354.497ZM1754.57 410.499L1754.83 411.157C1756.69 415.982 1758.32 430.579 1762.31 432.774L1763.17 432.164C1764.93 427.326 1763.44 423.424 1761.24 418.855C1759.8 415.854 1757.86 411.706 1754.57 410.499ZM1386.02 444.499C1368.72 451.75 1358.06 464.142 1351 481.319C1343.24 500.197 1339.24 526.548 1347.18 545.989C1350.32 553.663 1355.72 559.91 1363.47 563.125C1373.27 567.191 1385.45 566.081 1395.01 561.68C1395.6 561.409 1396.02 561.086 1396.53 560.692C1399.96 555.459 1406.61 518.978 1405.31 513.015C1405.27 512.84 1405.22 512.667 1405.17 512.493C1406.99 509.848 1408.08 507.124 1407.5 503.834C1407.32 502.828 1407.01 501.867 1406.6 500.933L1378.71 501.022C1378.77 501.197 1378.83 501.37 1378.88 501.547C1380.31 506.77 1376.96 512.757 1376.92 518.085C1376.87 523.777 1384.33 524.968 1378.34 534.438C1377.19 536.255 1376.8 536.33 1374.86 536.993C1371.96 535.915 1370.31 532.931 1369.11 530.218C1364.49 519.684 1368 502.639 1372.31 492.237C1375.34 484.912 1380.32 477.103 1387.9 473.874C1390.65 472.704 1393.66 472.815 1396.37 474.045C1399.45 475.443 1404.52 480.032 1406.12 483.044C1410.04 474.961 1413.14 459.063 1412.7 449.928C1408.17 445.235 1400.6 444.034 1394.37 443.932C1391.55 443.886 1388.81 444.106 1386.02 444.499ZM971.638 446.248C957.433 449.73 947.345 458.4 939.851 470.672C928.149 489.836 922.227 518.689 927.748 540.681C929.951 549.456 934.687 557.454 942.687 562.06C953.058 568.032 965.655 566.671 976.702 563.522C978.992 562.864 981.272 562.171 983.541 561.445C986.404 545.2 989.348 528.971 992.373 512.756C992.818 509.896 994.372 504.636 993.256 502.121C983.372 501.186 973.346 501.469 963.425 501.46C961.888 509.108 958.765 518.712 959.098 526.419L960.274 527.497C962.62 527.36 963.205 526.909 965.038 528.488C965.264 531.842 964.833 535.75 962.485 538.353C961.389 539.568 960.584 539.372 959.026 539.558C955.799 537.976 952.912 534.186 951.762 530.796C948.08 519.942 952.843 498.707 958.017 488.909C960.83 483.582 965.314 477.946 971.303 476.132C976.08 474.684 981.644 475.817 985.96 478.158C987.374 478.925 988.701 479.859 990.007 480.794C993.182 471.475 996.213 462.076 999.665 452.857C989.805 447.48 983.011 445.492 971.638 446.248ZM1056.97 446.496C1056.91 453.617 1051.96 489.508 1048.12 494.17L1032.97 494.3C1035.53 491.063 1042.93 453.849 1042.21 448.391C1042.15 447.956 1041.9 447.288 1041.78 446.912L1017.42 446.935C1010.68 485.997 1003.69 525.014 996.434 563.982L1016.25 563.969C1017.66 563.898 1020.7 564.179 1021.65 563.215C1023.44 561.413 1028.9 528.577 1028.65 524.836C1028.58 523.735 1028.26 522.876 1027.79 521.889L1042.7 521.653C1044.22 527.055 1039.5 556.644 1036.57 561.676C1036.09 562.51 1035.46 563.271 1034.82 563.985L1060.56 563.959C1061.79 562.571 1062.4 561.363 1062.82 559.574C1065.38 548.898 1082.11 453.923 1081.64 449C1081.54 447.964 1081.22 447.129 1080.73 446.232C1072.83 446.3 1064.85 446.118 1056.97 446.496ZM1091.38 446.492C1091.54 451.441 1088.92 469.458 1085.61 473.001L1103.75 473.791C1104.26 475.362 1104.56 476.855 1104.41 478.512C1103.45 488.991 1092.1 556.854 1088.97 562.601C1088.7 563.094 1088.29 563.567 1087.91 563.984L1113.19 563.934C1114.71 561.493 1116.27 558.609 1115.73 555.615C1115.61 554.93 1115.39 554.273 1115.15 553.622C1117.79 549.086 1130.78 479.104 1129.78 475.093C1129.66 474.612 1129.52 474.393 1129.3 473.924L1146.2 473.977C1149.03 469.542 1150.73 452.922 1149.2 447.631C1149.04 447.083 1148.74 446.528 1148.45 446.035C1129.93 446.003 1109.7 444.31 1091.38 446.492ZM1161.13 446.497C1161.59 454.93 1143.1 558.941 1139.35 563.442C1139.22 563.603 1139.07 563.752 1138.93 563.907C1147.49 563.731 1156.09 563.721 1164.64 563.373C1168.23 559.165 1174.07 520.702 1173.79 514.479C1173.72 512.926 1173.11 511.407 1172.51 509.994C1176.27 515.322 1182.49 554.152 1181.55 561.152C1181.42 562.121 1181.05 563.046 1180.63 563.922C1188.55 563.931 1197.53 564.782 1205.31 563.516C1206.15 562.849 1206.92 562.107 1207.3 561.089C1210.92 551.606 1212.87 531.245 1214.74 520.43C1218.66 497.699 1223.99 474.442 1226.54 451.562C1226.75 449.695 1226.57 448.126 1226.07 446.33L1201.78 446.185C1203.73 451.16 1196.62 489.861 1193.95 495.615C1193.57 496.427 1193.13 497.14 1192.65 497.886L1192.16 498.643C1191.77 499.238 1191.36 499.814 1190.94 500.388C1191.76 498.526 1192.47 496.547 1192.52 494.489C1192.71 486.969 1189.08 453.873 1186.21 447.72C1185.98 447.211 1185.6 446.709 1185.26 446.266C1177.28 446.184 1169.07 445.707 1161.13 446.497ZM1239.63 446.498C1239.6 458.512 1222.93 555.128 1218.25 562.229C1218.1 562.456 1217.96 562.69 1217.8 562.915C1217.71 563.051 1217.61 563.179 1217.51 563.31C1226.06 563.391 1234.76 563.835 1243.29 563.5C1243.98 562.741 1245.12 561.777 1245.62 560.921C1247.41 557.832 1265.72 458.279 1265.63 449.43C1265.62 448.257 1265.2 447.139 1264.69 446.101C1256.41 446.152 1247.87 445.784 1239.63 446.498ZM1278.24 446.498C1279.13 454.75 1262.67 545.498 1259.39 557.971C1258.9 559.835 1258.18 561.343 1256.97 562.848C1256.84 563.014 1256.69 563.169 1256.56 563.33C1265.26 563.38 1274.07 563.715 1282.77 563.439C1285.95 559.575 1292.33 524.069 1291.52 518.626C1291.23 516.76 1290.51 514.883 1289.81 513.135C1291.22 515.03 1292.79 517.158 1293.58 519.401C1295.85 525.912 1300.86 554.877 1300.27 561.214C1300.19 562.111 1299.84 563.04 1299.48 563.864C1307.13 564.019 1315.39 564.79 1322.94 563.528L1323.93 562.348L1323.59 560.509C1326.68 555.489 1344.78 449.357 1343.97 446.662C1343.92 446.472 1343.82 446.298 1343.74 446.116L1318.12 446.173C1320.46 452.414 1312.73 491.332 1309.61 498.273C1310.47 495.544 1305.87 451.801 1304.08 448.191C1303.71 447.43 1303.28 446.723 1302.78 446.034C1294.75 446.053 1286.2 445.497 1278.24 446.498ZM844.973 446.982L823.379 564.033C834.077 564.108 863.696 565.871 872.666 563.683L877.768 537.283C869.765 537.345 861.742 537.531 853.74 537.433C859.343 507.47 863.435 476.603 870.686 447.044L844.973 446.982ZM901.84 446.945C895.15 486.072 888 525.118 880.394 564.077L905.921 564.023L927.548 446.93L901.84 446.945ZM786.21 473.731C784.498 474.633 781.078 475.704 780.735 477.735C780.052 481.776 784.531 495.335 785.446 500.375C791.147 531.759 780.61 565.91 761.82 591.156C759.662 588.973 757.016 586.736 755.24 584.256C772.639 557.557 781.305 524.336 774.541 492.623C773.718 488.767 772.364 484.93 770.98 481.244L763.246 485.499C771.365 507.661 770.166 535.746 760.248 557.247C757.492 563.222 753.027 574.771 746.01 576.407C745.213 576.593 745.12 576.536 744.418 576.464C742.376 573.969 742.485 573.859 742.575 570.61C744.9 566.631 747.961 562.606 749.88 558.466C758.613 539.629 761.881 513.64 756.573 493.454C756.179 491.965 755.764 490.482 755.328 489.006L746.601 493.362C752.814 514.202 751.069 536.166 740.587 555.447C738.728 558.867 736.458 562.098 734.28 565.321L727.56 559.819C737.265 544.647 744.772 522.519 740.735 504.336C740.134 501.63 738.934 499.776 737.067 497.77L735.432 497.22C733.449 498.424 732.842 499.15 732.206 501.473C731.454 504.222 731.856 507.747 731.958 510.607C732.404 523.189 732.101 531.175 726.567 542.745C725.012 545.997 723.032 550.185 719.87 552.111C719.736 552.193 719.595 552.262 719.458 552.338C717.331 551.432 717.336 550.911 716.253 548.947C715.151 536.306 731.487 518.359 722.011 506.158C719.347 505.858 719.27 506.006 717.006 507.487C712.362 516.11 715.649 525.803 707.519 539.947C704.815 537.834 703.227 537.027 701.899 533.816C701.938 525.549 708.517 522.606 705.594 513.262C702.89 512.815 702.596 512.946 700.102 514.126C697.542 517.48 696.697 523.596 693.482 525.507C689.378 523.634 687.604 519.865 682.501 521.668C674.903 524.351 668.235 534.304 663.369 540.49C661.739 537.732 659.974 534.861 659.037 531.778C657.053 525.252 656.97 512.507 649.385 510.542C648.142 511.107 647.375 511.149 646.85 512.496C643.062 522.218 658.723 546.055 656.535 550.761C656.121 551.652 655.082 552.704 654.474 553.517L652.182 554.491C646.816 551.816 644.419 543.053 642.578 537.524C640.984 532.741 637.483 507.235 636.805 506.52C636.317 506.007 635.097 505.485 634.456 505.096C631.676 505.613 631.686 505.79 629.899 508.019C626.138 521.646 634.015 543.251 640.705 555.088C642.392 558.074 644.422 560.856 646.479 563.594L641.481 571.36C628.15 554.26 617.83 530.673 620.19 508.486C620.458 505.969 621.557 503.819 620.374 501.409C617.967 500.121 616.13 499.143 613.323 499.013C609.377 503.954 611.659 517.052 612.363 523.22C613.674 534.682 616.666 545.889 621.242 556.481C625.395 565.065 630.054 572.142 636.361 579.288L631.611 587.394C614.489 566.689 599.601 538.568 601.932 510.682C602.376 505.376 605.224 497.661 601.68 493.155C599.941 492.766 599.201 492.192 597.658 493.244C595.58 494.659 594.445 496.851 594.022 499.292C589.253 526.827 600.594 561.46 616.744 583.573C619.719 587.647 623.031 591.576 626.773 594.968L621.87 602.344C597.465 578.489 584.333 546.922 583.967 512.708C583.893 505.834 587.297 495.486 585.6 489.452C583.7 487.715 583.298 487.861 580.688 487.643C578.09 489.443 577.172 490.813 576.552 493.961C575.486 499.366 575.837 505.402 575.857 510.909C575.962 539.711 583.366 567.644 599.935 591.491C604.915 598.658 610.644 605.23 616.688 611.511L611.327 619.363C582.642 592.805 566.452 556.105 564.937 517.042C564.674 510.251 567.938 484.664 567.493 482.877C565.108 481.8 564.398 481.239 561.744 481.766C555.433 488.941 556.799 512.92 557.407 522.223C560 561.905 576.341 600.972 606.712 627.455C628.708 646.636 655.85 658.556 685.351 656.463C715.188 654.345 741.111 638.36 760.312 616.019C786.047 586.077 797.296 544.174 794.342 505.24C793.869 499.006 792.521 478.417 788.13 474.433C787.375 473.749 787.155 473.862 786.21 473.731ZM1466.57 535.496C1466.48 535.716 1466.39 535.935 1466.31 536.157C1463.79 542.871 1463.52 550.996 1462.2 558.089C1458.35 578.799 1453.26 599.907 1443.6 618.742C1438.82 627.997 1433.15 636.766 1426.68 644.926C1422.18 650.624 1406.77 664.457 1405.86 670.005L1407.15 671.802L1409.08 671.724L1409.96 670.504C1435.15 656.598 1456.52 612.273 1464.26 585.628C1466.67 577.306 1476.12 543.039 1472.75 536.674C1470.49 535.107 1469.24 535.457 1466.57 535.496ZM1488.17 535.497L1487.94 536.235C1485.16 545.618 1484.24 555.773 1481.98 565.353C1475.65 591.819 1464.87 617.02 1450.11 639.879C1446.13 645.915 1427.94 664.889 1429.03 671.169L1430.33 672.889L1432.1 672.675L1432.55 671.503C1437.64 667.453 1441.79 661.676 1445.88 656.631C1469.16 627.91 1483.97 595.497 1491.9 559.418C1493.2 553.481 1495 547.152 1495.63 541.118C1495.9 538.456 1495.63 537.902 1494 535.857C1491.86 535.073 1490.4 535.163 1488.17 535.497ZM1508.95 535.497C1506.77 545.755 1505.51 556.178 1503.02 566.369C1494.66 600.692 1477.61 631.868 1454.71 658.619C1452.04 661.742 1447.03 665.385 1448.55 669.832L1449.98 670.538C1450.7 670.088 1451.71 669.619 1452.26 668.999C1457.56 665.924 1461.96 660.282 1466.01 655.681C1488.95 629.589 1502.94 598.817 1511.79 565.47C1514.08 556.883 1517.31 546.842 1515.86 537.901C1514.8 536.315 1514.67 535.571 1512.71 535.199C1511.47 534.963 1510.18 535.268 1508.95 535.497ZM1531.41 535.496C1531.32 535.715 1531.22 535.932 1531.13 536.151C1527.55 544.79 1527.7 555.973 1525.39 565.194C1516.08 602.372 1500.42 631.565 1473.62 658.925C1470.92 661.681 1464.21 666.676 1464.45 670.123L1466.56 671.882L1468.24 671.058C1474.92 667.532 1480.97 660.919 1486.11 655.462C1507.65 632.622 1520.89 608.469 1530.11 578.519C1533.35 568.006 1540.63 548.424 1537.82 537.529L1536.06 535.545C1534.51 535.482 1532.96 535.372 1531.41 535.496ZM1553.7 535.497L1553.44 536.31C1550.78 544.784 1550.04 554.176 1548.05 562.892C1542.3 587.991 1533.13 611.536 1519.57 633.441C1514.88 641.021 1510.2 648.557 1504.51 655.443C1501.44 659.172 1497 662.748 1494.44 666.747C1493.36 668.434 1493.15 668.863 1493.51 670.849L1495.01 671.832C1495.46 671.52 1496.47 670.982 1496.81 670.503C1502.73 667.158 1507.83 660.935 1512.19 655.792C1532.13 632.235 1545.46 605.245 1553.67 575.569C1556.33 565.98 1563.15 546.337 1559.81 537.163C1557.79 535.179 1557.07 535.398 1554.32 535.462C1554.11 535.467 1553.91 535.485 1553.7 535.497ZM1574.91 535.497L1574.64 536.384C1571.43 547.263 1570.5 558.909 1567.64 569.968C1557.74 608.281 1539.38 638.991 1512.9 667.948C1512.33 668.576 1512.52 669.294 1512.48 670.121L1514.29 671.661L1516.22 671.133C1521.86 667.955 1526.81 662.031 1531.09 657.239C1553.25 632.435 1566.99 602.897 1575.86 571.014C1577.94 563.543 1584.7 543.317 1581.1 536.914C1580.45 535.749 1579.71 535.624 1578.55 535.096L1574.91 535.497ZM1596.06 535.497C1588.48 572.115 1582.45 601.025 1561.55 633.278C1557.97 638.813 1532.19 667.38 1532.16 669.093C1532.15 669.374 1532.95 670.635 1533.12 670.966C1534.81 670.759 1535.17 670.917 1536.4 669.662C1541.11 667.087 1545.11 662.924 1548.98 659.246C1573.24 636.177 1587.24 605.624 1596.55 573.94C1598.52 567.216 1606.04 543.155 1603.07 537.117C1602.41 535.769 1601.31 535.624 1600 535.061L1596.06 535.497ZM1618.77 535.497L1618.49 536.385C1615.25 546.605 1614.37 557.836 1611.72 568.29C1603.55 600.618 1587.78 629.909 1566.64 655.567C1564.44 658.232 1557.93 664.387 1558.51 667.467L1560.53 669.082L1562.31 667.503C1582.3 657.358 1609.03 604.774 1616.01 583.523C1618.83 574.962 1628.6 544.174 1624.59 536.663C1624.2 535.936 1623.29 535.626 1622.59 535.215L1618.77 535.497ZM1641.59 535.497C1636.8 544.173 1637.08 557.601 1634.37 567.396C1627.96 590.411 1618.95 612.62 1607.51 633.591C1603.01 641.747 1597.98 649.602 1592.46 657.107C1590.19 660.238 1587.08 663.325 1585.13 666.616C1584.59 667.525 1584.46 668.624 1584.41 669.659L1585.58 670.921L1587.18 670.25C1591.98 667.41 1595.67 662.335 1599.13 658.044C1620.28 631.863 1634.99 597.788 1643.37 565.322C1645.44 557.297 1649.15 545.972 1647.41 537.69L1645.71 535.599L1641.59 535.497ZM1662.6 535.497L1662.34 536.233C1658.9 546.097 1658.17 557.372 1655.64 567.58C1649.65 591.821 1639.04 616.908 1625.99 638.273C1621.26 646.004 1602.3 664.643 1602.73 671.455L1603.96 672.359C1604.83 671.732 1605.33 671.495 1605.8 670.503C1630.98 656.365 1655.17 600.354 1662.6 573.782C1664.67 566.398 1670.97 544.766 1669.35 537.764L1667.62 535.641C1665.91 535.473 1664.32 535.328 1662.6 535.497ZM1683.87 535.498C1681.69 544.717 1680.61 554.121 1678.43 563.353C1672.14 589.888 1661.14 616.524 1646.32 639.448C1641.4 647.044 1624.6 664.916 1622.93 668.471C1624.33 670.501 1624.34 670.823 1626.67 671.484L1627.66 670.502C1633.78 667.063 1638.9 660.637 1643.28 655.248C1663.85 629.916 1676.62 600.569 1685.39 569.365C1687.65 561.29 1693.99 543.639 1690.37 536.218C1687.95 534.761 1686.61 535.253 1683.87 535.498ZM1793.95 535.498C1788.66 542.613 1788.88 558.018 1786.56 566.808C1780.94 588.047 1773.03 608.041 1761.87 627.009C1756.2 636.699 1749.69 645.864 1742.4 654.397C1739.05 658.255 1735.01 661.776 1731.86 665.757C1730.97 666.881 1730.69 668.272 1730.45 669.652L1731.32 671.343L1733.36 671.056C1738.64 667.947 1743.08 662.849 1747.28 658.414C1770.75 633.647 1785.58 603.017 1794.1 570.195C1796.19 562.123 1802.33 544.03 1798.82 536.687C1796.88 535.488 1796.26 535.547 1793.95 535.498ZM1835.68 535.498C1831.51 543.419 1831.64 555.15 1829.72 563.978C1824.43 588.319 1811.88 611.023 1797.61 631.167C1793.5 636.959 1771 662.519 1770.92 668.023C1771.72 668.815 1772.67 670.068 1773.7 670.482C1780.08 664.76 1785.61 657.737 1791.18 651.239C1814.67 623.856 1830.68 596.423 1838.63 560.857C1840.1 554.267 1842.01 546.757 1842.13 539.984C1842.15 538.934 1841.84 537.918 1841.46 536.952C1839.22 535.573 1838.23 535.605 1835.68 535.498ZM1857.13 535.498C1852.46 542.435 1852.01 559.977 1849.56 568.921C1846.77 579.05 1842.97 589.213 1838.75 598.823C1832.83 612.321 1825.3 625.42 1817.24 637.771C1812.98 644.311 1795.38 664.198 1794.6 669.733L1796.25 671.712C1796.79 671.618 1797.74 671.569 1798.2 671.294C1804.06 667.523 1809.29 660.471 1813.71 655.017C1838.02 625.019 1853.71 591.075 1861.87 553.356C1862.93 548.473 1864.24 542.749 1863.08 537.814C1861.6 536.012 1861.11 535.643 1858.64 535.45C1857.92 535.394 1857.76 535.433 1857.13 535.498ZM1877.91 535.498C1873.24 544.247 1873.35 557.938 1870.93 567.771C1864.1 595.483 1848.46 624.464 1831.09 647.036C1827.44 651.769 1815.11 664.842 1815.78 670.227L1818.06 671.417L1819.45 670.541C1824.9 666.38 1829.51 659.868 1833.91 654.599C1860.4 622.838 1879.19 583.547 1884.62 542.345C1884.83 540.737 1884.7 539.376 1884.27 537.804C1882.85 536.232 1882.4 535.561 1880.17 535.366C1879.44 535.301 1878.63 535.424 1877.91 535.498ZM1920.78 535.498C1920.68 535.716 1920.57 535.932 1920.47 536.151C1917.02 543.53 1916.72 553.581 1914.88 561.583C1909.46 584.468 1899.48 606.023 1885.54 624.958C1877.33 636.026 1868.06 645.703 1858.29 655.366C1855.8 657.827 1846.92 664.753 1845.8 667.51C1845.57 668.101 1845.64 668.773 1845.55 669.405C1847.12 670.503 1847.34 670.712 1849.34 670.812C1856.15 667.079 1862.66 660.705 1868.39 655.413C1893.42 632.256 1910.28 606.937 1919.93 574.076C1922.18 566.417 1928.66 545.259 1926.67 537.968C1925.16 536.244 1924.75 535.723 1922.35 535.498C1921.65 535.432 1921.42 535.463 1920.78 535.498ZM1985.49 535.499C1981.31 540.602 1980.66 553.61 1979.21 560.134C1976.01 574.589 1970.47 589.158 1963.71 602.317C1956.39 616.567 1947.26 629.479 1936.75 641.543C1933 645.843 1922.98 654.513 1921.54 659.522C1922.27 661.303 1922.86 662.706 1924.18 664.125C1930.32 663.562 1937.54 653.907 1941.36 649.31C1963.11 623.135 1978.7 595.623 1987.38 562.554C1989.11 555.938 1991.75 547.299 1991.01 540.446C1990.77 538.239 1990.42 537.62 1989.03 535.993L1985.49 535.499ZM1705.58 536.497C1700.57 568.425 1691.19 598.679 1674.17 626.414C1671.15 631.34 1659.91 645.474 1659.01 650.016C1658.94 650.379 1659.53 651.915 1659.65 652.363L1661.59 653.57L1662.7 652.502C1685.7 636.995 1707.07 576.734 1712.21 550.321C1713.02 546.184 1713.19 542.545 1712.49 538.38C1711.53 537.074 1711.29 536.21 1709.55 535.953C1708.26 535.764 1706.83 536.208 1705.58 536.497ZM1770.5 536.497C1762.24 586.103 1744.12 638.483 1702.52 670.104L1702.2 672.043C1703.48 673.743 1703.33 673.868 1705.55 674.222L1706.32 673.771C1728.49 664.677 1753.22 620.872 1762.15 599.587C1766.68 588.767 1781.42 548.735 1777.05 537.629C1776.74 536.86 1775.82 536.406 1775.17 535.917C1773.62 536.093 1772.04 536.216 1770.5 536.497ZM1813.61 536.498C1811.32 546.91 1809.94 557.475 1807.3 567.816C1798.63 601.255 1781.8 632.022 1758.32 657.361C1755.01 660.972 1747.78 665.888 1749.84 671.072L1751.52 671.816L1752.72 670.502C1758.56 666.376 1763.67 660.391 1768.59 655.213C1796.9 625.436 1812.99 589.26 1819.95 548.91C1820.58 545.244 1821.14 541.735 1820.79 538.003C1819.59 536.533 1819.53 536.152 1817.55 535.976C1816.22 535.858 1814.9 536.206 1813.61 536.498ZM1898.15 536.498C1892.71 563.503 1888.63 587.838 1874.31 612.003C1867.41 623.636 1858.67 634.764 1849.44 644.656C1845.73 648.634 1840.42 652.598 1837.34 656.961C1835.88 659.032 1835.63 660.28 1835.6 662.766L1836.84 663.196L1838.43 660.562C1872.49 640.5 1891.39 603.825 1900.97 566.843C1902.96 559.117 1907.88 545.451 1904.92 537.82C1903.17 536.298 1902.8 535.907 1900.37 536.074C1899.63 536.125 1898.87 536.333 1898.15 536.498ZM1940.69 536.498L1940.43 537.462C1937.89 547.066 1936.91 556.995 1934.35 566.636C1924.64 603.136 1905.65 632.38 1877.61 657.312C1873.82 660.679 1867.27 664.81 1866.8 670.042L1868.39 671.578C1869.17 671.264 1869.8 671.096 1870.4 670.502C1876.35 666.929 1881.79 661.965 1887.11 657.506C1917.9 631.653 1935.16 598.797 1944.8 560.023C1946.49 553.235 1949.14 545.023 1947.39 538.059L1945.59 536.206C1943.9 536.182 1942.35 536.178 1940.69 536.498ZM1961.78 536.498C1956.04 572.588 1945.23 603.253 1922.04 632.116C1915.53 640.218 1893.85 659.626 1890.25 665.671C1889.14 667.538 1889.24 667.878 1890.12 669.78L1892.47 671.438L1893.48 670.501C1900.36 666.041 1906.51 659.215 1912.37 653.463C1942.47 623.876 1959.71 591.881 1968.54 550.487C1969.41 546.382 1970.67 541.071 1968.44 537.225C1965.63 535.562 1964.88 535.995 1961.78 536.498ZM833.042 599.369C826.964 608.292 812.854 627.842 801.815 630.453C800.333 630.804 799.618 630.21 798.279 629.617L797.402 627.393C802.225 619.338 808.624 613.728 807.39 603.409L806.303 601.615C803.754 601.936 802.259 603.148 800.698 605.18C796.119 611.138 792.878 618.147 788.403 624.233C779.666 636.116 769.039 646.572 758.721 657.062C752.851 662.933 746.642 668.675 741.105 674.849C768.298 671.857 802.246 657.339 819.57 635.615C824.886 628.95 838.913 612.278 838.087 603.911C837.954 602.563 837.259 601.519 836.118 600.742C835.228 600.136 834.047 599.753 833.042 599.369ZM1255.8 602.495C1250.8 616.446 1237.25 630.009 1227.23 640.638C1224.1 643.962 1219.7 647.639 1217.62 651.649C1219.6 652.326 1220.24 651.652 1222.13 650.874C1236.89 646.915 1253.56 626.211 1260.96 613.296C1262.57 610.494 1263.92 607.904 1263.69 604.594C1262.48 603.021 1261.87 601.879 1259.65 601.865C1258.42 601.858 1257.01 602.237 1255.8 602.495ZM1108.9 624.487C1102.8 634.588 1087.87 640.906 1084.26 651.668L1084.92 652.747C1086.11 652.39 1087.29 652.187 1088.15 651.22C1096.34 649.057 1112.06 637.697 1116.23 630.181C1117.01 628.763 1116.87 628.012 1116.86 626.43C1114.9 624.793 1113.69 624.029 1110.96 624.218C1110.28 624.266 1109.59 624.378 1108.9 624.487ZM863.905 783.482C863.934 783.835 864.228 784.107 864.583 784.107C864.937 784.107 865.231 783.835 865.259 783.482C865.28 783.227 865.155 782.982 864.937 782.849C864.719 782.715 864.445 782.715 864.227 782.849C864.009 782.982 863.885 783.227 863.905 783.482Z"/>
	<path fill="#42C83C" transform="scale(0.0576172 0.0576172)" d="M993.851 83.0077C993.702 82.7874 993.684 82.5045 993.803 82.2671C993.922 82.0298 994.159 81.8747 994.424 81.8614C994.69 81.848 994.941 81.9784 995.083 82.2026C995.299 82.5427 995.201 82.993 994.864 83.2132C994.527 83.4335 994.075 83.3419 993.851 83.0077Z"/>
	<path fill="#42C83C" transform="scale(0.0576172 0.0576172)" d="M885.125 337.124C884.959 337.349 884.684 337.466 884.407 337.43C884.13 337.394 883.894 337.21 883.79 336.951C883.687 336.691 883.733 336.395 883.91 336.179C884.175 335.855 884.649 335.802 884.979 336.059C885.308 336.315 885.374 336.788 885.125 337.124Z"/>
	<path fill="#42C83C" transform="scale(0.0576172 0.0576172)" d="M1266.1 337.187C1265.83 337.475 1265.37 337.492 1265.08 337.226C1264.78 336.96 1264.75 336.508 1265.01 336.204C1265.18 335.999 1265.45 335.905 1265.71 335.958C1265.98 336.011 1266.19 336.202 1266.27 336.458C1266.35 336.714 1266.29 336.993 1266.1 337.187Z"/>
	<path fill="#42C83C" transform="scale(0.0576172 0.0576172)" d="M885.125 337.124C896.282 340.497 911.983 349.684 917.578 360.139C919.452 363.641 921.163 367.238 922.868 370.824C909.443 360.297 896.56 349.885 885.125 337.124Z"/>
	<path fill="#42C83C" transform="scale(0.0576172 0.0576172)" d="M1083.88 365.529C1073.12 357.367 1064.81 345.932 1054.28 337.448C1054.98 337.476 1055.67 337.546 1056.36 337.686C1064.14 339.253 1078.41 350.486 1082.47 357.092C1084.28 360.038 1084.68 362.17 1083.88 365.529Z"/>
	<path fill="#42C83C" transform="scale(0.0576172 0.0576172)" d="M1266.1 337.187C1277.26 339.55 1294.13 357.755 1300.73 366.623L1300.68 368.532C1291.75 357.223 1273.1 351.824 1266.1 337.187Z"/>
	<path fill="#42C83C" transform="scale(0.0576172 0.0576172)" d="M1262.21 371.971C1247.45 363.179 1237.22 350.256 1224.31 339.395C1235.66 340.121 1247.39 353.404 1254.45 361.435C1256.91 364.233 1261.47 368.39 1262.21 371.971Z"/>
	<path fill="#42C83C" transform="scale(0.0576172 0.0576172)" d="M1316.14 340.031C1315.98 340.256 1315.72 340.382 1315.45 340.36C1315.18 340.338 1314.94 340.171 1314.83 339.923C1314.71 339.676 1314.74 339.387 1314.9 339.167C1315.15 338.835 1315.61 338.758 1315.94 338.994C1316.28 339.229 1316.37 339.691 1316.14 340.031Z"/>
	<path fill="#42C83C" transform="scale(0.0576172 0.0576172)" d="M1316.14 340.031C1328.26 341.567 1347.88 359.789 1355.27 369.307C1356.5 370.882 1357.45 372.054 1357.84 374.042C1352.7 370.149 1348.06 365.646 1342.98 361.659C1333.98 354.597 1324.33 348.029 1316.14 340.031Z"/>
	<path fill="#42C83C" transform="scale(0.0576172 0.0576172)" d="M803.041 342.93C802.907 343.124 802.679 343.231 802.444 343.211C802.209 343.19 802.003 343.045 801.905 342.83C801.806 342.615 801.831 342.365 801.969 342.173C802.18 341.882 802.586 341.814 802.879 342.021C803.173 342.229 803.245 342.634 803.041 342.93Z"/>
	<path fill="#42C83C" transform="scale(0.0576172 0.0576172)" d="M1024.13 343.09C1023.97 343.314 1023.7 343.433 1023.42 343.401C1023.15 343.37 1022.91 343.192 1022.81 342.936C1022.7 342.681 1022.74 342.387 1022.91 342.169C1023.17 341.841 1023.64 341.779 1023.97 342.03C1024.31 342.281 1024.38 342.752 1024.13 343.09Z"/>
	<path fill="#42C83C" transform="scale(0.0576172 0.0576172)" d="M1336.95 341.857C1337.12 341.64 1337.4 341.534 1337.67 341.582C1337.94 341.629 1338.17 341.823 1338.25 342.086C1338.34 342.348 1338.28 342.638 1338.09 342.839C1337.81 343.132 1337.35 343.156 1337.05 342.893C1336.74 342.63 1336.7 342.174 1336.95 341.857Z"/>
	<path fill="#42C83C" transform="scale(0.0576172 0.0576172)" d="M1347.18 343.157C1346.88 343.447 1346.41 343.444 1346.12 343.151C1345.84 342.857 1345.84 342.385 1346.14 342.099C1346.43 341.815 1346.9 341.821 1347.18 342.112C1347.47 342.403 1347.46 342.869 1347.18 343.157Z"/>
	<path fill="#42C83C" transform="scale(0.0576172 0.0576172)" d="M803.041 342.93L804.905 344.027L803.041 342.93Z"/>
	<path fill="#42C83C" transform="scale(0.0576172 0.0576172)" d="M1024.13 343.09C1033.9 346.334 1055.1 359.959 1059.91 368.894L1059.71 370.607C1050.77 359.303 1033.09 354.211 1024.13 343.09Z"/>
	<path fill="#42C83C" transform="scale(0.0576172 0.0576172)" d="M804.905 344.027C805.169 343.699 805.647 343.641 805.982 343.898C806.316 344.154 806.385 344.631 806.136 344.971C805.97 345.198 805.694 345.318 805.415 345.283C805.135 345.249 804.896 345.066 804.791 344.805C804.685 344.544 804.729 344.246 804.905 344.027Z"/>
	<path fill="#42C83C" transform="scale(0.0576172 0.0576172)" d="M913.964 343.827C914.135 343.651 914.39 343.584 914.626 343.653C914.861 343.722 915.039 343.917 915.087 344.158C915.135 344.398 915.046 344.646 914.855 344.801C914.583 345.021 914.187 344.992 913.951 344.733C913.715 344.475 913.721 344.078 913.964 343.827Z"/>
	<path fill="#42C83C" transform="scale(0.0576172 0.0576172)" d="M993.132 348.151C992.961 348.374 992.683 348.487 992.406 348.447C992.128 348.408 991.893 348.222 991.791 347.961C991.689 347.7 991.735 347.404 991.912 347.186C992.181 346.857 992.664 346.804 992.997 347.068C993.331 347.331 993.391 347.814 993.132 348.151Z"/>
	<path fill="#42C83C" transform="scale(0.0576172 0.0576172)" d="M812.716 359.601L813.833 360.11L812.716 359.601Z"/>
	<path fill="#42C83C" transform="scale(0.0576172 0.0576172)" d="M813.833 360.11C814.055 359.844 814.445 359.795 814.725 359.999C815.005 360.202 815.08 360.587 814.897 360.881C814.766 361.09 814.53 361.209 814.285 361.189C814.04 361.169 813.826 361.014 813.731 360.787C813.635 360.56 813.675 360.298 813.833 360.11Z"/>
	<path fill="#42C83C" transform="scale(0.0576172 0.0576172)" d="M1236.85 362.911C1237.06 362.673 1237.39 362.57 1237.7 362.644C1238.01 362.718 1238.26 362.956 1238.34 363.265C1238.42 363.573 1238.33 363.903 1238.1 364.123C1237.76 364.446 1237.23 364.444 1236.89 364.118C1236.55 363.793 1236.54 363.26 1236.85 362.911Z"/>
	<path fill="#42C83C" transform="scale(0.0576172 0.0576172)" d="M1309.17 365.119C1308.88 365.397 1308.43 365.393 1308.14 365.11C1307.86 364.827 1307.86 364.369 1308.13 364.082C1308.32 363.891 1308.59 363.815 1308.85 363.882C1309.1 363.95 1309.3 364.15 1309.37 364.406C1309.44 364.662 1309.36 364.935 1309.17 365.119Z"/>
	<path fill="#42C83C" transform="scale(0.0576172 0.0576172)" d="M809.927 366.109C809.771 366.338 809.495 366.452 809.223 366.402C808.951 366.351 808.735 366.145 808.672 365.876C808.609 365.607 808.711 365.326 808.931 365.159C809.204 364.954 809.585 364.976 809.832 365.212C810.079 365.448 810.119 365.827 809.927 366.109Z"/>
	<path fill="#42C83C" transform="scale(0.0576172 0.0576172)" d="M809.927 366.109L810.601 366.709L809.927 366.109Z"/>
	<path fill="#42C83C" transform="scale(0.0576172 0.0576172)" d="M1088.16 369.066C1087.89 369.39 1087.41 369.436 1087.09 369.169C1086.76 368.903 1086.72 368.424 1086.98 368.1C1087.25 367.775 1087.73 367.729 1088.05 367.996C1088.38 368.263 1088.42 368.742 1088.16 369.066Z"/>
	<path fill="#42C83C" transform="scale(0.0576172 0.0576172)" d="M898.901 368.841C899.226 368.525 899.744 368.529 900.064 368.85C900.384 369.171 900.387 369.689 900.071 370.013C899.862 370.227 899.555 370.312 899.267 370.235C898.978 370.159 898.753 369.934 898.677 369.645C898.602 369.356 898.687 369.049 898.901 368.841Z"/>
	<path fill="#42C83C" transform="scale(0.0576172 0.0576172)" d="M900.071 370.013L900.984 370.942L900.071 370.013Z"/>
	<path fill="#42C83C" transform="scale(0.0576172 0.0576172)" d="M900.984 370.942C901.149 370.771 901.393 370.703 901.622 370.766C901.85 370.828 902.027 371.01 902.082 371.24C902.138 371.47 902.063 371.713 901.888 371.872C901.629 372.107 901.23 372.095 900.986 371.844C900.743 371.593 900.742 371.194 900.984 370.942Z"/>
	<path fill="#42C83C" transform="scale(0.0576172 0.0576172)" d="M922.868 370.824C923.059 370.647 923.331 370.587 923.578 370.669C923.826 370.75 924.009 370.96 924.057 371.216C924.105 371.472 924.009 371.734 923.808 371.899C923.509 372.144 923.071 372.107 922.817 371.817C922.563 371.526 922.586 371.087 922.868 370.824Z"/>
	<path fill="#42C83C" transform="scale(0.0576172 0.0576172)" d="M1119.26 370.987L1120.86 371.833L1119.26 370.987Z"/>
	<path fill="#42C83C" transform="scale(0.0576172 0.0576172)" d="M1120.86 371.833C1121.15 371.561 1121.61 371.574 1121.89 371.863C1122.16 372.151 1122.16 372.609 1121.87 372.89C1121.68 373.076 1121.41 373.146 1121.16 373.073C1120.9 373.001 1120.71 372.797 1120.64 372.54C1120.58 372.283 1120.66 372.012 1120.86 371.833Z"/>
	<path fill="#42C83C" transform="scale(0.0576172 0.0576172)" d="M1262.21 371.971L1263.92 372.94L1262.21 371.971Z"/>
	<path fill="#42C83C" transform="scale(0.0576172 0.0576172)" d="M860.887 372.862C861.226 372.608 861.705 372.667 861.973 372.995C862.24 373.323 862.202 373.804 861.885 374.085C861.668 374.278 861.363 374.336 861.09 374.237C860.817 374.138 860.621 373.897 860.578 373.61C860.536 373.323 860.654 373.035 860.887 372.862Z"/>
	<path fill="#42C83C" transform="scale(0.0576172 0.0576172)" d="M1263.92 372.94C1264.17 372.687 1264.57 372.679 1264.83 372.923C1265.08 373.167 1265.09 373.572 1264.85 373.83C1264.7 374 1264.46 374.071 1264.23 374.018C1264.01 373.964 1263.83 373.793 1263.76 373.57C1263.7 373.347 1263.76 373.106 1263.92 372.94Z"/>
	<path fill="#42C83C" transform="scale(0.0576172 0.0576172)" d="M1357.84 374.042C1358.09 373.831 1358.46 373.839 1358.7 374.06C1358.94 374.282 1358.98 374.648 1358.79 374.914C1358.64 375.118 1358.39 375.219 1358.15 375.174C1357.9 375.129 1357.7 374.946 1357.64 374.704C1357.57 374.462 1357.65 374.204 1357.84 374.042Z"/>
	<path fill="#42C83C" transform="scale(0.0576172 0.0576172)" d="M814.868 626.913C814.666 626.751 814.579 626.486 814.644 626.236C814.709 625.985 814.914 625.796 815.169 625.752C815.423 625.708 815.68 625.816 815.826 626.03C816.009 626.3 815.968 626.664 815.728 626.885C815.488 627.106 815.122 627.118 814.868 626.913Z"/>
	<path fill="#42C83C" transform="scale(0.0576172 0.0576172)" d="M814.337 627.636L814.868 626.913L814.337 627.636Z"/>
	<path fill="#42C83C" transform="scale(0.0576172 0.0576172)" d="M764.498 663.456C769.394 657.739 786.45 638.647 792.329 636.044C799.679 632.79 807.144 631.638 814.337 627.636C803.743 641.447 782.506 660.798 764.498 663.456Z"/>
	<path fill="#42C83C" transform="scale(0.0576172 0.0576172)" d="M1060.86 637.98C1060.64 637.807 1060.54 637.529 1060.6 637.26C1060.66 636.991 1060.86 636.777 1061.12 636.705C1061.39 636.633 1061.67 636.716 1061.86 636.92C1062.11 637.203 1062.11 637.635 1061.85 637.912C1061.59 638.19 1061.15 638.219 1060.86 637.98Z"/>
	<path fill="#42C83C" transform="scale(0.0576172 0.0576172)" d="M1331.85 638.157C1331.62 637.986 1331.5 637.703 1331.54 637.418C1331.57 637.132 1331.76 636.89 1332.03 636.786C1332.3 636.682 1332.6 636.733 1332.83 636.918C1333.15 637.191 1333.2 637.675 1332.94 638.009C1332.67 638.344 1332.19 638.409 1331.85 638.157Z"/>
	<path fill="#42C83C" transform="scale(0.0576172 0.0576172)" d="M900.841 639.124C900.612 638.954 900.495 638.671 900.536 638.388C900.578 638.106 900.771 637.868 901.039 637.771C901.308 637.673 901.608 637.73 901.822 637.919C902.133 638.196 902.172 638.669 901.909 638.992C901.646 639.315 901.175 639.373 900.841 639.124Z"/>
	<path fill="#42C83C" transform="scale(0.0576172 0.0576172)" d="M1026.4 666.189L1060.86 637.98C1060.7 638.718 1060.51 639.516 1060.15 640.184C1054.23 651.239 1038.27 663.065 1026.4 666.189Z"/>
	<path fill="#42C83C" transform="scale(0.0576172 0.0576172)" d="M1349.83 643.159C1349.6 642.987 1349.49 642.704 1349.53 642.419C1349.56 642.135 1349.75 641.895 1350.02 641.791C1350.29 641.687 1350.59 641.736 1350.81 641.919C1351.14 642.193 1351.19 642.68 1350.93 643.017C1350.66 643.354 1350.18 643.417 1349.83 643.159Z"/>
	<path fill="#42C83C" transform="scale(0.0576172 0.0576172)" d="M1064.14 643.934C1063.88 643.649 1063.89 643.209 1064.17 642.937C1064.44 642.666 1064.88 642.659 1065.17 642.923C1065.36 643.103 1065.44 643.374 1065.37 643.63C1065.3 643.885 1065.1 644.084 1064.85 644.147C1064.59 644.211 1064.32 644.129 1064.14 643.934Z"/>
	<path fill="#42C83C" transform="scale(0.0576172 0.0576172)" d="M1119.07 644.113C1118.88 643.83 1118.91 643.446 1119.16 643.208C1119.41 642.97 1119.8 642.95 1120.07 643.161C1120.29 643.329 1120.39 643.608 1120.32 643.876C1120.26 644.143 1120.04 644.347 1119.77 644.399C1119.5 644.45 1119.23 644.338 1119.07 644.113Z"/>
	<path fill="#42C83C" transform="scale(0.0576172 0.0576172)" d="M1338.13 644.084C1337.82 643.809 1337.77 643.339 1338.03 643.01C1338.29 642.681 1338.75 642.608 1339.1 642.842C1339.34 643.007 1339.47 643.293 1339.43 643.584C1339.4 643.875 1339.21 644.124 1338.93 644.229C1338.66 644.334 1338.35 644.278 1338.13 644.084Z"/>
	<path fill="#42C83C" transform="scale(0.0576172 0.0576172)" d="M1117.27 645.047L1119.07 644.113L1117.27 645.047Z"/>
	<path fill="#42C83C" transform="scale(0.0576172 0.0576172)" d="M1255.11 645.129C1254.91 644.871 1254.93 644.507 1255.15 644.267C1255.37 644.028 1255.73 643.984 1256.01 644.163C1256.23 644.309 1256.34 644.571 1256.3 644.832C1256.25 645.093 1256.06 645.303 1255.8 645.367C1255.55 645.431 1255.28 645.338 1255.11 645.129Z"/>
	<path fill="#42C83C" transform="scale(0.0576172 0.0576172)" d="M1253.72 646.126L1255.11 645.129L1253.72 646.126Z"/>
	<path fill="#42C83C" transform="scale(0.0576172 0.0576172)" d="M1301.95 646.159C1301.69 645.905 1301.67 645.488 1301.9 645.206C1302.14 644.923 1302.55 644.87 1302.85 645.085C1303.06 645.238 1303.17 645.497 1303.13 645.756C1303.09 646.015 1302.91 646.232 1302.67 646.316C1302.42 646.401 1302.14 646.341 1301.95 646.159Z"/>
	<path fill="#42C83C" transform="scale(0.0576172 0.0576172)" d="M1252.88 647.887L1253.72 646.126L1252.88 647.887Z"/>
	<path fill="#42C83C" transform="scale(0.0576172 0.0576172)" d="M1262.18 647.894C1261.95 647.617 1261.98 647.215 1262.24 646.971C1262.5 646.727 1262.9 646.725 1263.16 646.965C1263.35 647.138 1263.43 647.401 1263.36 647.647C1263.29 647.893 1263.09 648.081 1262.84 648.133C1262.59 648.185 1262.34 648.093 1262.18 647.894Z"/>
	<path fill="#42C83C" transform="scale(0.0576172 0.0576172)" d="M1309.15 647.902C1308.96 647.719 1308.88 647.447 1308.94 647.19C1309.01 646.934 1309.21 646.731 1309.46 646.661C1309.72 646.59 1309.99 646.662 1310.18 646.849C1310.46 647.134 1310.47 647.596 1310.18 647.885C1309.9 648.174 1309.44 648.181 1309.15 647.902Z"/>
	<path fill="#42C83C" transform="scale(0.0576172 0.0576172)" d="M876.031 648.808C875.845 648.616 875.779 648.336 875.86 648.081C875.941 647.825 876.156 647.635 876.42 647.585C876.683 647.536 876.953 647.635 877.121 647.843C877.366 648.146 877.33 648.588 877.038 648.847C876.746 649.105 876.303 649.088 876.031 648.808Z"/>
	<path fill="#42C83C" transform="scale(0.0576172 0.0576172)" d="M1251.87 649.092C1251.65 648.915 1251.54 648.63 1251.58 648.347C1251.63 648.065 1251.83 647.831 1252.1 647.735C1252.37 647.639 1252.67 647.698 1252.88 647.887C1253.2 648.169 1253.24 648.654 1252.96 648.981C1252.69 649.307 1252.2 649.357 1251.87 649.092Z"/>
	<path fill="#42C83C" transform="scale(0.0576172 0.0576172)" d="M1236.26 663.878C1242.04 659.932 1246.92 654.036 1251.87 649.092C1251.37 651.885 1250.55 655.191 1248.46 657.196C1244.92 660.36 1241.08 663.221 1236.26 663.878Z"/>
	<path fill="#42C83C" transform="scale(0.0576172 0.0576172)" d="M917.871 663.131C917.626 662.803 917.686 662.34 918.008 662.086C918.329 661.832 918.793 661.88 919.056 662.194C919.232 662.405 919.28 662.695 919.181 662.951C919.081 663.208 918.851 663.39 918.579 663.427C918.306 663.465 918.035 663.351 917.871 663.131Z"/>
	<path fill="#42C83C" transform="scale(0.0576172 0.0576172)" d="M1196.11 662.774C1195.84 662.472 1195.87 662.011 1196.18 661.746C1196.48 661.482 1196.94 661.516 1197.2 661.822C1197.46 662.124 1197.43 662.579 1197.13 662.841C1196.83 663.102 1196.37 663.072 1196.11 662.774Z"/>
	<path fill="#42C83C" transform="scale(0.0576172 0.0576172)" d="M806.285 664.019C806.033 663.541 806.194 662.951 806.653 662.667C807.112 662.384 807.713 662.504 808.027 662.943C808.249 663.255 808.28 663.664 808.106 664.005C807.932 664.347 807.583 664.563 807.2 664.565C806.817 664.568 806.464 664.357 806.285 664.019Z"/>
	<path fill="#42C83C" transform="scale(0.0576172 0.0576172)" d="M805.071 664.95L806.285 664.019L805.071 664.95Z"/>
	<path fill="#42C83C" transform="scale(0.0576172 0.0576172)" d="M1136.9 664.926C1136.71 664.711 1136.64 664.407 1136.73 664.13C1136.82 663.852 1137.05 663.645 1137.34 663.587C1137.62 663.529 1137.92 663.629 1138.11 663.849C1138.4 664.183 1138.37 664.687 1138.04 664.982C1137.71 665.276 1137.2 665.251 1136.9 664.926Z"/>
	<path fill="#42C83C" transform="scale(0.0576172 0.0576172)" d="M803.903 665.83C803.731 665.622 803.687 665.337 803.789 665.087C803.891 664.838 804.121 664.664 804.389 664.635C804.657 664.607 804.919 664.728 805.071 664.95C805.292 665.273 805.22 665.713 804.907 665.948C804.595 666.184 804.152 666.132 803.903 665.83Z"/>
	<path fill="#42C83C" transform="scale(0.0576172 0.0576172)" d="M845.916 665.813C845.734 665.593 845.687 665.292 845.791 665.026C845.896 664.76 846.137 664.572 846.42 664.535C846.703 664.498 846.984 664.618 847.154 664.848C847.406 665.19 847.34 665.671 847.005 665.933C846.67 666.194 846.187 666.141 845.916 665.813Z"/>
	<path fill="#42C83C" transform="scale(0.0576172 0.0576172)" d="M1135.16 666.107L1136.9 664.926L1135.16 666.107Z"/>
	<path fill="#42C83C" transform="scale(0.0576172 0.0576172)" d="M1134.19 666.902C1134.02 666.633 1134.08 666.282 1134.32 666.081C1134.57 665.881 1134.92 665.891 1135.16 666.107C1135.34 666.274 1135.4 666.531 1135.33 666.764C1135.25 666.998 1135.05 667.166 1134.8 667.196C1134.56 667.225 1134.32 667.111 1134.19 666.902Z"/>
	<path fill="#42C83C" transform="scale(0.0576172 0.0576172)" d="M919.172 670.887C918.991 670.607 919.051 670.237 919.31 670.029C919.57 669.82 919.944 669.842 920.178 670.078C920.352 670.255 920.411 670.515 920.329 670.748C920.247 670.982 920.04 671.149 919.794 671.179C919.548 671.208 919.306 671.095 919.172 670.887Z"/>
</svg>
