<?xml version="1.0" encoding="utf-8" ?>
<svg xmlns="http://www.w3.org/2000/svg" xmlns:xlink="http://www.w3.org/1999/xlink" width="118" height="59">
	<path transform="scale(0.115234 0.115234)" d="M265.775 215.75C279.317 213.479 294.277 218.131 301.654 230.275C303.953 225.953 306.337 221.73 308.85 217.528L334.771 217.528C332.756 239.277 321.068 310.969 314.456 324.365C298.844 355.996 259.398 362.271 229.63 347.365C227.075 345.958 224.421 344.691 221.819 343.373C223.544 334.06 225.544 325.79 229.63 317.186C250.274 331.065 280.875 334.548 290.243 306.767C275.34 315.722 256.996 315.099 242.774 304.823C210.043 281.171 220.061 222.799 265.775 215.75ZM280.122 289.446C308.396 281.319 303.287 233.561 272.745 239.262C246.052 245.918 247.963 290.816 280.122 289.446Z"/>
	<path transform="scale(0.115234 0.115234)" d="M845.735 215.75C854.617 215.215 879.941 218.042 883.481 228.914C885.393 226.389 886.081 220.679 885.856 217.528C894.591 218.396 905.967 217.551 914.966 217.528C915.601 219.009 902.86 301.141 901.307 309.077C894.442 344.161 861.444 361.528 827.631 352.793C821.733 351.269 816.165 348.549 810.183 347.365C809.145 345.579 807.228 344.37 805.487 343.373C807.92 341.051 813.429 320.664 813.125 317.186C830.626 322.179 852.981 341.406 869.696 314.354C871.092 312.094 872.665 309.432 872.044 306.767C869.5 308.938 860.522 311.216 857.115 311.845C798.621 322.631 783.654 226.82 845.735 215.75ZM860.601 289.446C889.801 281.364 884.24 235.956 852.155 239.262C822.091 255.53 834.177 290.045 860.601 289.446Z"/>
	<path transform="scale(0.115234 0.115234)" d="M348.454 176.043L378.372 176.043C377.605 191.727 377.563 214.631 378.372 230.275C386.631 220.469 395.273 216.405 408.453 216.192C438.061 215.714 433.978 243.137 433.961 263.935L433.941 311.295L404.761 311.295L404.761 281.402C404.673 269.352 405.201 257.155 404.761 245.136C397.569 235.612 386.528 238.5 378.372 245.136L378.372 311.295L348.454 311.295L348.454 176.043Z"/>
	<path transform="scale(0.115234 0.115234)" d="M568.199 215.75C609.994 214.614 601.357 255.327 601.418 283.759C601.432 289.955 603.616 306.428 601.466 311.295L571.261 311.295C572.192 309.419 572.447 252.233 569.677 243.01C563.977 236.654 545.027 241.31 544.32 250.73C545.251 253.121 544.269 258.195 544.263 260.976C544.249 266.693 545.095 308.943 544.32 311.295L514.8 311.295C516.736 307.879 514.849 301.175 514.827 297.304L514.804 241.529C514.807 237.66 515.92 219.794 514.8 217.528C523.786 217.385 532.88 217.188 541.86 217.528C543.499 220.065 543.465 228.111 541.86 230.275C551.632 225.343 549.943 218.176 568.199 215.75Z"/>
	<path transform="scale(0.115234 0.115234)" d="M759.516 215.75C797.163 211.978 788.877 256.526 788.908 280.268C788.917 287.432 791.125 305.539 788.965 311.295L759.516 311.295C760.262 309.97 759.975 248.575 758.82 245.123C755.028 233.791 739.777 236.523 733.086 250.405L732.927 250.73C735.34 256.928 732.98 311.174 732.927 311.295L703.458 311.295C704.851 308.707 703.464 250.383 703.46 241.69C703.459 237.783 704.51 219.909 703.458 217.528L732.927 217.528C734.016 220.184 733.766 226.142 732.927 228.914C740.889 224.431 739.336 216.253 759.516 215.75Z"/>
	<path transform="scale(0.115234 0.115234)" d="M126.574 185.007L155.971 185.007C154.551 199.106 152.263 213.236 150.281 227.269L142.088 285.954C152.28 286.122 162.51 285.955 172.705 285.954C171.929 294.392 170.316 302.874 169.215 311.295L109.338 311.295C114.449 273.454 125.146 222.155 126.574 185.007Z"/>
	<path transform="scale(0.115234 0.115234)" d="M459.626 190.788L489.096 190.788L489.096 217.528C492.974 217.35 496.782 217.364 500.66 217.528L500.66 239.262L489.096 239.262L489.096 311.295L459.626 311.295L459.626 239.262L449.048 239.262C448.944 232.024 449.08 224.769 449.048 217.528C452.559 217.384 456.111 217.509 459.626 217.528L459.626 190.788Z"/>
	<path transform="scale(0.115234 0.115234)" d="M637.709 152.405C642.534 151.805 648.003 152.325 652.903 152.357L681.558 152.405C681.622 156.264 672.398 171.384 669.502 173.508L692.33 173.508C692.068 175.433 679.873 189.721 677.903 192.24L654.052 222.975C650.576 227.46 646.798 233.646 642.506 237.263C641.941 239.633 623.319 261.534 620.843 263.113C625.173 258.861 643.382 201.479 642.506 197.044L622.654 197.044C624.721 194.579 638.038 154.832 637.709 152.405Z"/>
	<path transform="scale(0.115234 0.115234)" d="M662.489 217.528C668.6 216.58 685.064 217.53 692.33 217.528C694.114 222.481 685.439 268.784 684.193 277.562L681.333 298.335C680.879 301.739 681.325 309.398 678.088 311.295L649.153 311.295C650.476 308.983 663.988 224.006 662.489 217.528Z"/>
	<path transform="scale(0.115234 0.115234)" d="M191.301 217.528L221.819 217.528C218.117 227.573 217.511 238.826 215.979 249.398L210.972 282.319C209.555 292.004 208.379 301.69 206.454 311.295L177.276 311.295C177.979 305.679 179.263 300.145 180.051 294.536L191.301 217.528Z"/>
</svg>
