<?xml version="1.0" encoding="utf-8" ?>
<svg xmlns="http://www.w3.org/2000/svg" xmlns:xlink="http://www.w3.org/1999/xlink" width="118" height="59">
	<path fill="#42C83C" transform="scale(0.0576172 0.0576172)" d="M807.313 398.947L1627.32 399.169L1846.51 399.489L1907.19 399.527C1924.58 399.547 1942.51 398.57 1959.61 402.165C1988.59 408.257 2014.99 429.094 2030.72 453.697C2037.67 464.572 2049.47 490.516 2046.68 503.032C2048.74 507.758 2048.94 518.38 2047.15 523.16C2046.98 523.604 2046.92 523.721 2046.73 524.109C2049.02 538.138 2034.88 565.933 2026.79 577.201C2008.53 602.612 1981.64 617.954 1950.95 622.927C1931.84 626.024 1911.56 624.81 1892.22 624.86L1808.77 625.416L1460.8 627.236L1354.12 628.01C1333.51 628.116 1311.98 626.902 1291.54 629.047C1272.49 631.045 1241.15 643.296 1221.3 649.441C1171.22 664.549 1121.26 680.027 1071.41 695.873L494.484 875.498L166.346 977.879C132.785 987.969 99.1467 997.8 65.4345 1007.37C47.6794 1012.46 27.5142 1016.84 10.5392 1024L7.92789 1024C6.03076 1022.8 3.44269 1021.41 2.07541 1019.61C0.521658 1017.58 -0.0829776 1015.54 0.445157 1013.01C1.32632 1008.79 5.22565 1006.11 8.45806 1003.63C17.9136 996.384 28.4042 990.172 38.2804 983.485L99.347 941.916C178.361 887.554 258.346 834.618 339.264 783.134C430.12 724.708 518.866 662.842 610.322 605.381C592.783 602.038 574.964 599.742 557.332 596.904L467.862 582.024L189.184 534.725L81.213 516.35C63.8695 513.395 45.6488 511.515 28.6187 507.317C26.4812 506.79 25.5063 506.275 24.1728 504.512C22.5741 502.399 21.7533 499.816 22.156 497.161C22.3685 495.759 22.5946 493.908 23.7364 493.053C35.9022 483.935 82.7618 470.076 100.368 463.95L257.526 409.768L981.081 161.815C1115.2 116.015 1248.48 68.0192 1383.05 23.4996C1398.8 18.2883 1447.07 0.134661 1460.51 2.68513C1463.5 3.25358 1464.37 4.08774 1466.06 6.5175C1466.33 7.97314 1466.53 9.40701 1466.15 10.866C1465.03 15.2861 1461.35 18.7233 1457.83 21.3543C1438.87 35.5287 1416.18 46.8073 1395.9 59.1488C1345.02 90.7516 1293.48 121.268 1241.31 150.679L960.973 311.195C909.533 340.059 858.312 369.31 807.313 398.947ZM1326.41 69.4966C1326.23 69.5946 1326.04 69.6955 1325.86 69.7908C1317.17 74.2651 1306.24 76.8942 1296.95 80.0659L1242.89 98.7771L1031.07 171.85L306.503 420.381L157.799 471.598C146.697 475.409 109.784 486.049 102.268 491.26L103.795 492.365L101.756 491.868C102.208 493.118 102.095 493.667 103.366 494.294C108.996 497.07 120.769 497.326 127.165 498.456C161.779 504.653 196.446 510.552 231.161 516.154C380.752 541.764 530.545 566.186 680.524 589.419C572.843 661.354 464.79 732.731 356.37 803.547L226.39 887.839C209.35 898.928 191.787 909.514 175.055 921.033C168.465 925.569 114.127 965.385 113.102 969.511C114.859 970.848 115.688 970.843 117.836 970.505C127.695 968.953 148.759 960.916 159.266 957.738L283.766 919.164C414.939 878.149 546.578 838.034 677.248 795.482L1117.06 656.803L1230.39 621.327C1247.73 615.893 1268.34 607.271 1286.23 604.879C1304.3 602.463 1324.13 604.11 1342.45 604.11L1453.54 604.166L1778.95 604.114L1884.85 604.243C1903.79 604.289 1923.16 605.128 1942.06 604.161C1974.37 602.756 2003.54 584.394 2018.79 555.865C2030.3 534.275 2032.7 508.975 2025.45 485.606C2018.13 462.056 2001.65 441.393 1979.72 429.904C1967.83 423.718 1954.78 420.075 1941.41 419.207C1926.65 418.255 1911.58 418.875 1896.78 418.907L1820.67 418.965L1577.27 418.94L713.55 419.999C869.867 336.654 1023.53 247.734 1177.78 160.62C1200.98 147.516 1323.58 80.1199 1331.1 71.5478L1330.94 69.8055C1329.27 69.1864 1328.16 69.28 1326.41 69.4966Z"/>
	<path fill="#42C83C" transform="scale(0.0576172 0.0576172)" d="M114.086 491.643C143.18 480.015 173.542 470.74 203.167 460.527L389.808 396.92L1016.62 181.735L1204.89 116.974C1235.88 106.287 1267.6 96.4872 1298.09 84.4965L1299.78 84.6502C1293.87 93.6364 754.403 393.381 696.477 424.061L1536.5 424.142L1812.13 424.121L1891.91 424.083C1908.35 423.995 1925.1 423.195 1941.51 424.148C1953.97 424.872 1965.72 427.862 1976.85 433.564C1998.02 444.473 2014.03 463.317 2021.36 485.983C2028.38 508.062 2026.26 532.033 2015.47 552.535C2008.8 565.249 1998.39 576.606 1986.56 584.691C1975.71 592.104 1962.69 597.408 1949.64 599.108C1932.03 601.401 1913.07 599.903 1895.31 599.829L1806.09 599.902L1449.34 599.945L1340.07 600.043C1323.15 600.035 1304.71 598.407 1287.93 600.213C1271.12 602.022 1252.93 609.797 1236.7 614.844L1129.92 648.407L702.75 783.114C653.664 796.879 605.045 813.824 556.316 828.933C413.801 874.196 271.05 918.713 128.069 962.482C158.3 936.74 191.763 915.4 225.039 893.925L311.915 837.644L548.392 682.616C596.625 650.884 645.976 619.98 692.924 586.389C657.361 582.429 621.851 575.768 586.476 570.292C509.693 558.241 432.977 545.766 356.332 532.868L208.333 508.127C177.109 502.981 144.919 498.661 114.086 491.643ZM1174.72 140.494L1174.02 140.813C1152.3 150.559 1128.11 157.006 1105.55 164.808L959.328 214.923L174.597 482.528C171.916 483.465 168.548 484.525 166.928 486.962C168.362 489.057 169.481 489.349 171.976 489.824C205.266 496.154 240.357 500.266 274.051 505.984L571.561 555.309C620.116 563.024 669.282 568.956 717.506 578.502C715.692 582.119 713.738 587.227 710.606 589.829C694.428 603.269 675.83 614.398 658.379 626.094C624.514 648.806 590.455 671.226 556.205 693.352L273.12 878.755C258.37 888.493 243.476 898.011 228.442 907.304C218.575 913.47 207.672 919.341 198.789 926.847C224.729 920.683 250.363 910.904 275.832 902.908C328.298 886.754 380.668 870.287 432.938 853.508L622.36 793.692C691.439 772.338 761.122 751.709 829.605 728.543L1159.94 624.644C1186.09 616.232 1212.29 607.964 1238.54 599.842C1252.46 595.456 1267.54 589.232 1282.03 587.405C1297.89 585.404 1315.27 586.799 1331.32 586.779L1430.07 586.572L1813.68 585.935L1900.15 586.091C1915.96 586.129 1932.76 587.296 1948.44 585.3C1971.77 582.328 1993.14 567.048 2004.02 546.276C2013.01 528.978 2014.81 508.83 2009.03 490.212C2003.05 471.387 1989.18 454.496 1971.57 445.45C1961.92 440.494 1952.02 437.767 1941.19 437.188C1925.33 436.34 1909.21 436.937 1893.33 436.971L1805.7 437.176L1524.05 437.619L646.144 438.308C679.227 418.06 713.549 399.922 747.579 381.339L850.992 324.135L1103.35 182.294C1111.02 178.019 1177.14 143.248 1178.88 140.492L1174.72 140.494Z"/>
	<path fill="#42C83C" transform="scale(0.0576172 0.0576172)" d="M209.33 483.281C245.39 471.884 281.112 458.661 316.823 446.162L429.407 407.715C511.485 380.008 593.386 351.779 675.105 323.027C711.876 310.709 748.558 298.129 785.15 285.289L912.809 239.409C930.868 232.807 948.634 225.241 966.844 219.088C992.328 210.477 1019.01 205.882 1044.42 197.47L1049.98 197.142C1047.15 201.717 1024.81 213.522 1019.09 216.956C990.295 234.601 961.241 251.818 931.937 268.602C893.177 290.377 853.646 310.782 814.773 332.362C765.114 359.931 715.858 388.917 665.49 415.124C637.442 429.717 608.031 440.773 579.923 455.157C722.248 448.088 865.287 449.155 1007.77 449.121C1272.58 450.663 1537.4 450.676 1802.21 449.161C1833.16 448.717 1864.15 449.16 1895.11 449.066C1912.55 449.013 1935.72 446.442 1952.48 450.174C1963.6 452.648 1974.36 458.735 1982.48 466.681C1994.48 478.479 2001.26 494.584 2001.33 511.412C2001.6 528.377 1994.96 544.725 1982.94 556.695C1975.95 563.725 1964.85 571.46 1955.03 573.514C1942.1 576.217 1927.35 575.011 1914.17 575.007L1853.6 574.998L1619.75 575.171C1516 574.856 1412.24 575.486 1308.5 577.06C1244.24 578.187 1179.86 580.5 1115.61 580.879C1025.79 580.83 935.981 580.237 846.175 579.101C820.218 578.846 794.206 577.813 768.257 577.902C754.579 577.948 741.118 581.25 727.326 581.313C731.146 576.472 734.718 571.429 738.354 566.449C693.626 565.311 649.014 556.781 604.89 549.967C531.841 538.648 458.884 526.75 386.024 514.273L268.999 494.569C249.961 491.349 227.289 489.531 209.33 483.281ZM974.356 224.794C971.755 226.338 968.674 227.664 967.215 230.411L967.784 231.836C969.215 232.436 970.63 233.157 972.186 233.332C975.11 231.739 977.454 230.612 979.154 227.621L979.02 225.796C977.295 225.023 976.259 224.599 974.356 224.794ZM947.015 235.486C945.915 235.779 945.095 236.697 944.927 237.822C944.759 238.947 945.276 240.064 946.241 240.665C947.207 241.266 948.438 241.236 949.373 240.589C950.513 239.8 950.92 238.305 950.339 237.046C949.757 235.788 948.354 235.129 947.015 235.486ZM922.532 253.063C912.031 256.411 859.707 270.796 854.641 276.533L855.038 277.93C856.327 278.427 857.335 278.902 858.735 278.948C869.437 275.731 920.959 261.754 925.554 256.144L925.449 254.079C924.486 253.66 923.586 253.156 922.532 253.063ZM837.622 277.948C830.667 280.604 775.458 298.822 773.509 301.11L773.749 302.78C776.153 304.274 776.46 304.139 779.315 303.88C790.446 300.351 838.029 286.865 842.931 280.34C842.551 279.54 842.468 278.711 841.601 278.406C840.072 277.869 839.22 277.683 837.622 277.948ZM852.453 292.024C844.878 294.585 822.694 299.543 817.863 304.566L818.257 306.578C819.497 307.338 820.368 308.001 821.889 307.911C831.591 305.076 847.838 302.266 855.546 295.882L855.816 294.266C854.564 293.043 854.178 292.474 852.453 292.024ZM780.458 311.883C755.817 321.623 731.044 331.028 706.147 340.094C691.988 345.269 677.244 349.832 663.376 355.682C660.718 356.804 658.094 357.506 656.591 360.032C657.502 362.084 657.394 362.13 659.465 362.945L661.217 362.373C678.583 355.89 778.882 320.589 784.708 314.647L784.235 312.716C782.796 312.059 782.089 311.774 780.458 311.883ZM718.46 316.956C704.429 322.422 613.002 352.762 608.907 356.973L609.408 359.034C610.323 359.482 611.196 360.004 612.2 360.198C628.295 354.616 714.12 326.655 721.135 320.776L721.685 319.341C720.473 317.861 720.375 317.427 718.46 316.956ZM776.32 332.83C766.786 336.462 729.851 348.332 724.857 354.198L724.889 355.674C726.056 356.387 727.017 357.141 728.443 357.093C736.815 353.737 775.147 341.132 779.34 336.123L779.01 333.968C778.144 333.545 777.27 333.005 776.32 332.83ZM588.802 361.855C571.032 369.626 460.315 407.705 456.348 412.143L456.844 414.387L459.239 415.38C474.871 409.742 587.535 370.648 591.532 365.817C591.227 363.508 590.504 363.354 588.802 361.855ZM696.588 365.943C688.739 368.63 655.949 377.653 653.368 383.168C653.289 383.337 653.256 383.524 653.2 383.702C654.929 384.898 655.304 384.799 657.33 384.852C665.457 381.917 697.081 373.712 700.596 367.649C699.116 366.154 698.607 366.279 696.588 365.943ZM615.017 377.004C604.988 381.283 550.804 402.207 547.202 405.897L547.135 408.04C547.902 408.697 548.771 409.657 549.688 410.058C558.803 406.332 613.666 385.491 617.645 380.63C617.209 378.346 616.789 378.377 615.017 377.004ZM668.585 390.878C662.238 393.512 642.677 398.767 639.714 404.418L640.279 405.757C642.456 406.386 642.991 406.451 645.195 405.966C652.736 403.164 667.681 399.454 672.913 393.599C672.692 392.814 672.782 392.23 672.039 391.819C670.779 391.124 670.078 390.753 668.585 390.878ZM625.093 405.942L527.165 444.248C513.628 449.618 498.056 454.199 485.3 460.988C483.572 461.908 482.563 462.805 481.716 464.577C483.098 466.118 484.372 465.821 486.339 465.994C523.79 451.511 561.091 436.645 598.237 421.397C606.475 418.085 615.211 415.962 623.355 412.419C625.718 411.391 628.104 410.54 629.651 408.384C629.347 407.649 629.233 406.679 628.475 406.359C627.173 405.811 626.531 405.632 625.093 405.942ZM431.448 426.994C425.157 429.135 415.507 431.294 410.407 435.51L409.883 437.348C411.823 438.651 412.355 439.022 414.781 438.62C415.482 438.504 416.177 438.215 416.838 437.971C422.035 436.163 434.897 433.103 437.793 428.256L437.239 427.213C435.119 426.746 433.583 426.513 431.448 426.994ZM492.756 432.032C482.014 435.943 421.28 458.389 418.449 464.298C419.236 465.469 419.795 466.489 421.122 467.112C432.921 461.806 490.849 440.266 495.852 435.543L495.707 433.557C494.777 433.012 493.804 432.284 492.756 432.032ZM371.56 436.925L301.68 461.687C291.926 465.093 281.693 467.699 272.124 471.536C269.621 472.54 267.141 473.383 265.464 475.601C265.543 477.618 265.53 477.491 266.979 478.908L269.31 478.759C285.841 472.146 370.118 445.244 375.994 439.827L376.272 438.153C374.321 437.054 373.807 436.953 371.56 436.925ZM389.876 453.037C378.052 457.227 303.597 481.501 299.891 486.529L300.546 488.253L303.229 489.355C316.937 484.478 387.159 461.492 392.864 456.825L393.086 454.952C391.819 453.618 391.767 453.33 389.876 453.037ZM538.787 459.861C526.912 464.949 436.839 501.576 433.737 507.6L434.668 509.422L437.395 510.205C448.886 504.765 540.198 465.106 541.212 464.097L541.419 462.37C540.593 461.532 539.765 460.507 538.787 459.861ZM1693.57 460.498C1693.96 461.356 1694.39 462.995 1695.26 463.34C1699.96 465.204 1838.6 468.45 1840.81 467.501L1842.75 465.153C1842.32 464.333 1842.29 463.646 1841.36 463.376C1834.19 461.298 1700.35 458.729 1693.57 460.498ZM669.614 461.973C655.53 468.351 538.531 519.754 536.371 525.036L537.514 526.787L539.507 527.198C555.794 519.502 669.953 469.671 673.537 464.612L672.42 462.655L669.614 461.973ZM1595.26 463.5C1580.3 466.035 1505.64 462.088 1501.12 467.161C1501.97 468.486 1502.54 469.51 1503.98 470.268C1516.73 470.229 1593.87 472.221 1601.01 466.472L1601.01 464.986C1599 464.089 1597.48 463.506 1595.26 463.5ZM610.636 465.958C599.86 470.975 521.761 504.442 519.145 508.12L519.451 509.929C520.811 510.706 521.604 511.191 523.241 511.064C535.444 505.909 610.008 473.85 614.916 468.621L614.95 467.125C613.141 465.889 612.851 465.933 610.636 465.958ZM762.1 466.867C755.713 470.011 732.357 479.3 729.499 484.104L730.477 485.702C731.773 485.853 733.034 486.146 734.28 485.646C741.051 482.772 763.05 474.61 766.578 468.914L765.24 466.902C764.232 466.874 763.093 466.728 762.1 466.867ZM566.605 467.889L504.919 495.956C495.569 500.123 483.669 503.457 475.418 509.233C475.64 511.364 475.913 511.637 477.278 513.324C489.045 508.744 563.944 477.546 568.927 471.511C568.381 469.443 568.244 469.272 566.605 467.889ZM1025.93 468.388C1015.09 472.881 1006.77 478.816 1002.09 490.072C997.469 501.188 997.654 515.801 1002.42 526.87C1006.04 535.496 1012.99 542.297 1021.69 545.735C1033.59 550.42 1049.75 548.148 1061.31 543.064C1063.66 538.71 1063.51 509.821 1062.35 503.853C1062.23 503.237 1061.9 502.865 1061.53 502.382C1059.61 502.217 1057.68 501.989 1055.75 502.015L1034.04 502.151C1034.15 502.362 1034.26 502.571 1034.36 502.785C1036.58 507.54 1033.84 514.677 1036.87 518.352L1037.6 518.272C1039.52 518.075 1040.85 517.99 1042.7 518.575C1043.45 521.387 1044.35 524.796 1042.85 527.52C1041.99 529.08 1040.87 530.046 1039.07 530.4C1035.16 531.17 1030.51 528.891 1027.56 526.53C1023.04 522.906 1020.17 517.628 1019.58 511.873C1018.97 505.413 1020.81 495.66 1025.22 490.655C1028.42 487.011 1033.5 485.137 1038.26 484.862C1043.37 484.568 1048.44 486.52 1052.35 489.793C1052.41 489.847 1052.46 489.92 1052.51 489.983C1054.65 485.034 1057.85 477.226 1057.19 471.784C1048.49 466.714 1035.62 467.226 1025.93 468.388ZM1212.72 468.498C1213.54 479.32 1215.1 540.761 1211.32 546.826L1228.05 546.874C1231.8 539.769 1229.62 507.122 1228.4 498.468C1232.66 503.139 1251.22 541.571 1251.03 546.955L1264.9 546.863C1267.42 546.69 1268.54 547.072 1270.37 545.093C1270.64 533.43 1271.99 475.01 1268.62 468.288L1252.42 468.272C1255.37 474.534 1255.25 506.706 1253.7 513.642C1254.73 508.668 1237.62 476.025 1234.03 470.898C1233.3 469.845 1232.48 469.02 1231.45 468.263C1225.28 468.277 1218.85 467.939 1212.72 468.498ZM1286.46 468.499C1287.17 480.312 1288.89 539.555 1285.07 546.913C1291.32 546.945 1299.07 547.816 1305.1 546.502C1305.57 545.753 1306.41 544.744 1306.7 543.942C1308.25 539.629 1307.9 477.935 1306.69 471.477C1306.48 470.379 1306.05 469.35 1305.5 468.38C1299.17 468.405 1292.78 468.24 1286.46 468.499ZM1340.93 468.5L1321.6 468.651C1322.54 470.138 1323.17 471.601 1323.34 473.365C1324.34 483.39 1325.08 536.02 1323.22 543.732C1322.95 544.857 1322.49 545.901 1321.95 546.918L1338.72 546.905C1341.63 541.548 1341.18 507.559 1339.17 500.874C1339.03 500.382 1338.86 499.895 1338.69 499.413C1343.01 502.574 1359.27 537.326 1360.4 543.862C1360.52 544.548 1360.43 545.101 1360.22 545.753C1365.67 547.767 1372.75 547.011 1378.53 546.912C1380.92 541.974 1381.26 476.173 1379.37 470.399C1379.12 469.66 1378.84 469 1378.49 468.312L1361.72 468.293C1363.98 473.414 1365.36 507.859 1363.37 512.834C1363.06 513.624 1362.7 514.392 1362.34 515.161C1364.11 507.015 1349.64 479.361 1344.58 471.47C1343.36 469.56 1343 469.315 1340.93 468.5ZM1419.45 468.499C1408.27 472.874 1400.57 479.556 1395.73 490.856C1390.88 502.461 1390.81 515.513 1395.53 527.171C1399.3 536.294 1406.27 543.115 1415.44 546.738C1429.19 552.168 1443.49 543.063 1446.11 544.619C1448.27 545.906 1449.49 546.278 1452.08 546.068C1453 545.475 1454.48 544.922 1454.7 543.835C1456.15 536.566 1455.8 511.351 1454.86 504.1C1452.76 502.769 1451.15 503.019 1448.75 502.938L1424.1 502.998C1426.47 508.295 1426.33 514.511 1424.31 519.927C1427.7 519.641 1432.38 518.612 1435.27 520.711C1436.65 522.853 1436.74 522.819 1436.3 525.312C1434.08 527.888 1431.71 529.282 1428.3 529.55C1425.3 529.787 1422.54 528.975 1420.25 526.993C1415.64 523.013 1414.66 515.981 1414.35 510.258C1413.99 503.491 1415.37 496.316 1420.1 491.184C1422.24 488.862 1425.16 487.015 1428.38 486.809C1433.04 486.511 1437.39 489.751 1440.56 492.87C1441.21 493.519 1441.64 494.129 1442.15 494.894C1445.62 489.88 1451.62 482.74 1450.28 476.3C1449.77 473.84 1448.19 472.138 1446.03 470.961C1439.17 467.227 1427.07 467.601 1419.45 468.499ZM908.126 469.04L908.082 546.684L955.854 546.67L955.957 529.011L928.463 529.127L928.226 468.963L908.126 469.04ZM965.63 468.883C965.637 494.853 965.409 520.852 965.796 546.819L985.631 546.807L985.71 468.866L965.63 468.883ZM1075.4 469.48C1077.36 473.547 1077.58 540.105 1075.82 544.732C1075.53 545.496 1075.19 546.168 1074.77 546.861L1095.03 546.745C1097.82 541.334 1097.66 523.567 1096.03 517.406C1095.81 516.602 1095.38 515.824 1094.94 515.122L1113.71 515.079C1116.78 520.678 1116.75 536.912 1115.03 543.248C1114.73 544.347 1114.2 545.37 1113.62 546.339C1118.43 546.405 1123.45 546.212 1128.25 546.552C1130.8 546.52 1132.84 547.024 1134.88 545.403C1135.67 536.139 1136.58 473.864 1133.33 468.712L1113.92 468.703C1116.67 473.548 1116.33 489.539 1114.85 495.227C1114.6 496.171 1114.16 497.06 1113.68 497.903L1094.96 497.966C1097.71 493.094 1097.53 477.397 1095.94 471.769C1095.63 470.649 1095.1 469.621 1094.5 468.634C1088.38 468.681 1081.34 468.13 1075.4 469.48ZM1146.35 469.493C1147.87 473.523 1148.06 481.185 1146.26 485.214C1146.02 485.766 1145.71 486.268 1145.38 486.769L1162.24 486.838C1164.79 491.099 1165.22 537.736 1163.59 543.599C1163.32 544.568 1162.87 545.448 1162.34 546.296L1183.16 546.359C1185.31 542.051 1185.62 537.061 1184.04 532.518C1183.79 531.77 1183.44 531.201 1183.01 530.543C1185.9 525.804 1185.68 496.25 1184.35 489.972C1184.1 488.772 1183.54 487.671 1182.87 486.654L1199.48 486.477C1201.42 482.214 1201.99 475.545 1200.5 471.03C1200.2 470.131 1199.8 469.356 1199.27 468.576C1182.24 468.676 1163.13 466.979 1146.35 469.493ZM700.511 469.854C684.73 477.152 576.94 527.202 573.443 532.822C574.066 534.813 574.075 534.84 575.848 535.936L657.14 495.608C669.986 489.345 683.432 484.042 696.059 477.399C698.662 476.03 701.093 474.809 702.927 472.417L702.251 470.55L700.511 469.854ZM1619.44 472.499L1618.78 475.48C1620.18 477.317 1620.61 477.523 1623.06 477.846C1632.48 479.09 1642.97 478.536 1652.51 478.785C1676.5 479.413 1700.57 479.547 1724.55 480.5C1726.66 479.258 1727.16 479.395 1727.83 476.944C1725.98 475.428 1724.4 475.395 1722.1 475.23C1710.72 474.418 1698.94 475.169 1687.48 474.726C1664.93 473.852 1641.97 471.918 1619.44 472.499ZM462.02 472.96C452.196 477.02 410.35 491.477 406.006 496.921C406.323 499.129 406.692 499.158 408.277 500.607C417.154 496.84 459.463 481.989 463.557 476.729C463.427 474.607 463.458 474.507 462.02 472.96ZM1845.93 477.499L1845.29 480.391C1847.34 482.631 1849.92 482.549 1852.91 482.715C1863.49 483.304 1930.56 486.537 1935.52 484.501L1938.53 482.596L1938.63 481.04C1936.75 479.675 1934.87 479.476 1932.63 479.283C1922.72 478.431 1912.38 479.153 1902.4 478.843C1887.85 478.391 1858.99 475.428 1845.93 477.499ZM783.185 480.775C769.787 487.695 754.208 491.902 741.319 499.297C739.465 500.361 738.739 500.953 738.063 503.011C739.58 504.297 740.717 503.997 742.667 504.097C753.107 499.953 780.509 491.115 787.378 484.199L787.338 482.042C785.62 480.913 785.161 480.914 783.185 480.775ZM1491.97 486.499L1491.14 489.496C1492.62 491.458 1493.54 491.691 1496 492.004C1504.58 493.098 1534.83 493.054 1542.33 491.501L1544.57 489.721L1543.82 487.457C1538.27 484.685 1499.9 485.541 1491.97 486.499ZM706.946 489.879C696.133 495.131 634.079 523.591 631.257 528.721L632.153 530.392L635.124 531.102C644.365 526.586 706.256 497.81 709.888 493.867C710.188 493.541 710.497 492.375 710.685 491.915C709.185 490.382 709.047 490.234 706.946 489.879ZM820.945 489.92C808.302 495.359 702.806 540.815 700.194 544.613C699.822 545.155 699.674 545.822 699.415 546.426C699.984 547.473 700.448 548.526 701.4 549.281C728.775 536.37 756.345 523.876 784.1 511.805C794.712 507.158 812.092 501.279 821.058 495.49C821.881 494.959 822.432 494.231 822.937 493.414C822.48 491.48 822.53 491.277 820.945 489.92ZM365.822 490.992C362.079 492.341 354.914 493.969 352.66 497.45C353.247 499.848 353.735 499.773 355.718 501.094C360.116 499.285 365.181 497.722 368.777 494.539L369.032 492.598C367.971 491.949 367.05 491.254 365.822 490.992ZM1632.4 491.498C1632.93 493.065 1633.06 495.008 1634.75 495.663C1638.41 497.081 1703.98 496.822 1710.02 495.501L1711.98 492.919L1710.92 491.341C1698.59 490.273 1643.14 489.569 1632.4 491.498ZM1806.29 492.498C1806.89 495.396 1806.69 495.744 1809.03 497.467C1817.25 497.966 1875.14 502.206 1878.31 500.059L1880.27 497.832C1879.29 496.226 1878.86 495.952 1876.96 495.545C1867.99 493.615 1813.17 490.816 1806.29 492.498ZM1574.78 497.498L1574.17 500.514C1576.17 503.044 1578.72 503.473 1581.89 503.842C1586.02 504.323 1591.74 505.334 1595.8 504.502L1598.3 502.836L1598.36 500.909C1593.93 497.412 1580.4 497.087 1574.78 497.498ZM1503.74 498.499L1502.78 501.004C1503.41 502.385 1503.31 502.767 1504.73 503.314C1511.83 506.055 1534.13 504.385 1542.34 503.751L1544.6 502.034L1544.45 499.781C1539.18 496.315 1511.82 497.987 1503.74 498.499ZM1900.68 502.499C1901.44 504.682 1901.31 505.529 1903.5 506.521C1907.34 508.258 1931.2 509.595 1935.39 507.615C1935.66 507.487 1935.92 507.34 1936.19 507.203L1938.38 505.09C1937.76 503.652 1937.89 503.441 1936.42 502.883C1930.25 500.534 1907.58 501.088 1900.68 502.499ZM1740.83 505.499C1741.1 506.825 1741.05 508.687 1742.24 509.41C1742.62 509.644 1813.63 514.379 1816.59 513.643C1816.73 513.608 1816.87 513.548 1817.01 513.501L1818.91 510.947C1817.74 509.186 1817.19 508.953 1815.06 508.53C1805.21 506.562 1749.54 503.913 1740.83 505.499ZM1712.23 507.5C1700.17 507.794 1677.33 506.185 1667.09 508.244L1666.05 509.645C1667.16 511.602 1667.57 512.189 1669.91 512.757C1670.51 512.902 1671.14 512.831 1671.75 512.791C1681.72 512.889 1712.16 515.522 1719.86 511.072L1720.35 509.938C1717.7 507.77 1715.62 507.205 1712.23 507.5ZM716.037 510.908C706.418 515.48 671.6 529.102 666.432 535.061L666.838 536.635C668.109 537.321 668.904 537.931 670.388 537.91C678.229 534.288 716.939 518.616 720.632 513.297L720.007 511.547C718.609 511.036 717.546 510.513 716.037 510.908ZM1518.96 513.499C1519.07 516.151 1518.79 516.642 1520.58 518.533C1531.05 519.695 1573.51 519.815 1583.98 518.501L1586.37 516.916L1586.52 514.969C1582.28 511.52 1530 512.267 1521.15 513.211C1520.42 513.287 1519.69 513.383 1518.96 513.499ZM1853.72 513.5L1853.17 516.511C1855.28 518.711 1856.97 518.827 1860.03 518.87C1869.09 518.995 1878.15 518.006 1887.2 518.016C1889.31 517.238 1890.72 517.032 1892.15 515.185C1887.34 510.769 1862.61 512.974 1854.94 513.402C1854.53 513.425 1854.13 513.46 1853.72 513.5ZM1726.74 522.493C1723.3 522.819 1718.61 522.692 1716.2 525.434C1720.05 528.549 1753.59 527.081 1760.75 527.048C1764.91 527.17 1770.02 527.905 1773.87 526.156L1774.8 524.431L1774.17 523.104C1765.78 520.313 1736.23 521.522 1726.74 522.493ZM1809.87 524.499C1810.11 526.95 1809.78 527.98 1811.75 529.718L1882.78 532.757C1893.35 533.232 1907.8 535.717 1918.1 533.683L1919.84 531.22C1919.4 530.387 1919.31 529.594 1918.38 529.293C1913.7 527.79 1816.35 523.44 1809.87 524.499ZM1616.25 527.499L1567.7 529.168C1561.01 529.391 1552.99 528.692 1546.52 529.902C1543.66 530.438 1541.59 531.382 1539.47 533.409L1539.44 534.594C1544.5 537.331 1596.87 534.054 1606.75 533.095C1621.35 532.83 1680.49 533.631 1689.36 529.6L1689.91 528.436C1684.48 524.802 1627.26 527.041 1616.25 527.499ZM1717.44 539.499C1717.71 540.862 1717.58 542.126 1718.76 542.97C1722.2 545.438 1745.9 544.745 1750.17 543.9C1750.7 543.793 1750.8 543.717 1751.23 543.501L1753.45 541.102C1752.91 540.22 1752.9 539.65 1751.85 539.386C1742.95 537.132 1726.74 538.231 1717.44 539.499ZM1810.16 541.499L1810.48 544.518C1814.77 547.649 1845.88 547.251 1852.89 546.209C1853.63 546.099 1854.13 545.829 1854.79 545.501L1856.21 543.227C1854.89 541.447 1854.11 541.214 1851.94 540.945C1843.21 539.858 1818.48 539.93 1810.16 541.499ZM1516.88 547.499L1517.06 550.963C1523.34 555.75 1542.02 552.567 1550.26 551.97L1552.53 550.029L1552.17 548.176C1547.11 545.392 1523.3 546.521 1516.88 547.499ZM1651.32 547.499C1639.38 547.984 1612.67 545.533 1603.26 550.434L1602.77 551.702C1609.64 554.794 1623.01 553.154 1630.75 553.014C1638.04 552.898 1678.51 554.028 1682.42 550.38C1682.63 550.182 1682.8 549.945 1682.99 549.727L1682.73 548.6C1675.5 544.628 1659.63 547.164 1651.32 547.499ZM1731.64 554.499C1731.85 555.829 1731.72 557.58 1732.83 558.404C1734.11 559.356 1821.51 566.054 1827.78 564.716C1828.27 564.613 1828.17 564.639 1828.5 564.501L1830.43 562.181C1830.01 561.341 1830.01 560.747 1829.08 560.439C1823.06 558.452 1737.78 553.512 1731.64 554.499ZM1530.67 560.499L1531.4 563.61C1535.12 565.868 1566.8 566.922 1571.56 565.756C1571.88 565.678 1572.2 565.586 1572.52 565.501L1574.55 563.155C1573.54 561.385 1573.5 561.366 1571.52 560.847C1562.68 558.534 1539.77 558.885 1530.67 560.499ZM1600.98 560.5L1599.94 563.47C1601.08 565.252 1601.26 565.26 1603.32 565.774C1609.71 567.363 1641.43 567.792 1647.5 566.501L1649.49 564.761L1649.01 562.881C1641.43 558.959 1611.17 560.633 1600.98 560.5Z"/>
	<path fill="#42C83C" transform="scale(0.0576172 0.0576172)" d="M727.693 599.403L958.622 595.247C990.534 594.874 1022.45 595.223 1054.36 594.5C1107.84 592.878 1161.73 593.672 1215.25 593.961C1209.63 597.972 1089.82 633.832 1073.61 639.059L320.3 878.011C309.977 880.891 299.899 884.728 289.446 887.096C285.948 887.888 281.026 889.294 277.915 887.326C278.426 886.318 278.988 885.23 279.955 884.591C284.172 881.8 289.494 879.894 293.949 877.327C307.871 869.306 321.66 861.015 335.48 852.816C369.834 832.221 404.026 811.357 438.054 790.227C456.085 779.038 474.301 766.021 493.269 756.597C514.537 746.032 537.619 737.281 559.836 728.801C568.057 725.662 577.755 723.708 585.278 719.184C587.422 717.894 588.583 717.099 589.161 714.605L587.895 713.695C572.794 714.939 527.592 736.251 509.299 742.671C545.138 715.851 582.954 691.517 620.327 666.914C638.757 654.78 656.617 641.729 675.362 630.076C692.534 619.4 710.491 610.033 727.693 599.403ZM1080.47 602.484L1079.81 602.825C1073.04 606.237 1054.69 608.189 1051.57 615.08C1053.09 616.821 1053.05 616.792 1055.34 617.002L1056.26 616.525C1061.93 614.661 1085.54 608.457 1088.13 605.13L1087.77 603.327C1085.1 601.789 1083.46 602.111 1080.47 602.484ZM1143.61 602.491C1142.04 603.293 1140.48 604.113 1138.9 604.886C1136.76 605.928 1135.5 607.092 1133.9 608.805L1132.78 608.49L1134.29 609.317L1133.77 610.281L1135.44 611.614L1133.35 611.518L1137.33 611.226C1142.04 610.056 1147.36 608.685 1150.45 604.621L1150.34 603.274C1148.03 602.101 1146.1 602.323 1143.61 602.491ZM905.421 603.576C898.207 603.993 854.004 604.872 850.9 607.044L850.345 609.455C854.072 612.487 863.425 611.004 868.249 610.83C881.18 609.948 912.483 611.368 922.406 606.847L922.931 605.621C921.411 603.975 920.406 602.806 917.977 602.696C913.928 602.511 909.474 603.219 905.421 603.576ZM1008.7 603.345C984.82 607.001 961.344 612.086 938.523 620.152C928.012 623.867 917.888 628.589 907.396 632.301C903.022 633.848 893.527 634.229 890.659 637.893C890.262 638.401 890.421 638.378 890.468 639.136C893.975 640.778 896.936 640.93 900.683 640.045C913.123 636.237 924.772 630.56 936.901 625.933C952.922 619.82 973.514 614.085 990.456 611.6C996.44 610.723 1013.48 610.289 1016.82 605.413C1016.54 604.704 1016.42 603.659 1015.69 603.344C1013.39 602.344 1011.08 602.956 1008.7 603.345ZM795.787 604.41C789.03 605.501 736.999 611.206 735.886 611.954L735.435 614.065C736.9 615.994 736.879 616.101 739.234 616.581C749.294 615.967 794.494 613.355 799.279 608.011C799.446 607.825 799.595 607.623 799.753 607.429L799.246 605.37C798.097 604.83 797.096 604.185 795.787 604.41ZM1106.7 608.49C1099.56 613.081 1073.26 618.576 1070.24 624.067L1071.11 625.982C1073.06 626.517 1073.2 626.693 1075.17 625.888C1083.37 623.608 1110.23 616.146 1114.98 610.287L1114.73 608.685C1112.17 607.115 1109.47 607.969 1106.7 608.49ZM802.356 614.896C795.511 617.647 768.533 626.489 766.12 630.939C766.718 632.847 766.898 632.702 768.563 633.624L771.202 633.047C778.175 630.024 803.537 622.195 807.31 617.455L806.592 615.582C805.065 615.078 803.97 614.79 802.356 614.896ZM889.75 620.067C877.451 624.402 865.394 629.451 853.077 633.685C842.026 637.485 776.663 656.283 773.734 660.008L773.729 662.047C774.646 662.775 775.442 663.589 776.583 663.908C791.109 660.21 804.878 653.979 819.07 649.223C832.391 644.759 887.164 631.255 894.099 622.399L893.558 620.844C892.246 620.462 891.129 620.059 889.75 620.067ZM730.934 624.158C722.236 626.572 703.206 630.214 696.81 635.515L696.771 637.304C698.119 638.4 698.458 638.793 700.217 639.08C706.944 637.119 732.124 631.266 734.913 626.482C735.199 625.99 735.216 625.858 735.438 625.273C733.761 624.262 732.881 624.095 730.934 624.158ZM955.247 625.996C940.001 632.235 924.868 638.903 909.25 644.162C904.554 645.743 893.053 648.068 890.044 651.754L890.452 653.65C893.046 654.945 893.354 654.825 896.243 654.334C913.705 648.657 946.037 639.031 960.622 628.999L961.491 627.24C959.391 625.561 957.968 625.7 955.247 625.996ZM1019.48 626.858C1008.88 631.582 998.747 634.94 987.418 637.454C982.592 638.525 971.889 639.504 968.499 642.506C969.004 644.761 969.158 644.63 970.951 645.882L973.227 645.736C984.143 643.682 1017.63 638.252 1023.82 630.099L1023.97 627.927C1022.09 626.89 1021.63 626.835 1019.48 626.858ZM1051.87 629.488C1046.89 630.91 1040.92 631.987 1036.56 634.832L1035.74 636.454C1036.48 637.852 1036.66 638.386 1038.01 639.27C1043.64 638.272 1050.62 636.698 1055.24 633.151L1055.79 631.378C1054.43 630.128 1053.7 629.768 1051.87 629.488ZM738.763 634.161C731.728 636.137 705.107 641.999 702.069 646.503L702.531 648.214C704.558 649.295 704.905 649.215 707.218 648.972C717.67 646.148 735.865 643.411 744.234 636.762L744.465 635.09C742.318 634.045 741.218 633.72 738.763 634.161ZM1017.79 637.057C1001.14 642.886 984.366 647.677 967.622 653.098L966.779 655.001C967.417 656.076 967.918 657.129 968.999 657.823C978.782 655.946 1014.67 647.09 1019.97 640.357L1019.65 638.325L1017.79 637.057ZM783.085 639.087C776.327 641.102 762.58 643.763 757.984 648.811L758.402 650.297C760.18 651.059 761.285 651.312 763.213 651.066C768.753 649.34 785.208 645.845 788.263 641.849C787.349 639.63 787.325 639.746 785.095 638.813L783.085 639.087ZM739.317 652.035C732.815 653.959 700.582 662.121 698.226 666.09L698.907 668.115L700.904 668.842C710.33 666.49 735.053 661.442 741.814 655.632L741.816 653.482C740.824 652.632 740.649 652.217 739.317 652.035ZM931.357 652.932C916.611 658.72 901.676 663.251 886.305 667.05C877.664 669.185 868.656 670.697 860.174 673.362C858.026 674.037 856.251 674.338 854.895 676.247C855.842 677.834 856.311 678.631 858.3 679.014C858.908 679.132 859.622 678.971 860.216 678.877C874.519 675.577 929.508 664.799 935.788 655.235C936.044 654.845 936.147 654.629 936.35 654.237C935.01 652.837 933.782 652.864 931.826 652.87C931.669 652.87 931.513 652.911 931.357 652.932ZM757.759 665.176C750.099 667.273 734.075 670.013 728.962 675.839L728.858 677.18C730.836 677.99 732.098 678.205 734.226 677.954C743.378 675.186 753.5 672.964 762.123 668.858L763.032 667.111L762.185 665.403C760.613 665.095 759.359 664.798 757.759 665.176ZM931.636 668.104C922.383 672.45 913.048 676.168 903.274 679.188C890.387 683.17 856.815 689.097 848.322 695.446L847.935 696.853C849.695 698.105 850.049 698.225 852.204 698.381C865.616 694.978 929.278 680.652 934.533 671.231C934.682 670.964 934.798 670.68 934.931 670.404L934.089 668.647L931.636 668.104ZM829.225 669.037C794.089 679.956 760.658 695.463 725.525 706.171C715.317 709.281 682.075 713.639 675.959 719.535L675.936 721.147C677.9 722.555 677.867 722.64 680.247 722.341C697.594 718.334 715.348 714.843 732.406 709.762C752.323 703.829 771.248 695.022 790.699 687.781C803.183 683.134 816.25 679.783 828.586 674.769C830.59 673.955 832.251 673.227 833.647 671.488L832.626 669.481C831.521 669.296 830.343 668.987 829.225 669.037ZM636.687 676.073C628.063 679.527 617.733 682.403 609.936 687.37L609.407 688.953C610.107 689.378 610.743 689.881 611.549 690.056C619.361 687.48 634.09 684.36 639.775 678.636L639.351 676.925C638.463 676.568 637.648 676.153 636.687 676.073ZM640.309 685.006C630.906 688.143 616.207 691.279 608.944 698.097L608.854 700.043C610.946 700.962 611.03 700.949 613.236 700.34C622.408 697.006 637.473 693.536 644.742 687.61L645.089 685.948C643.085 684.876 642.604 684.9 640.309 685.006ZM774.824 704.498C760.014 715.231 714.383 726.943 695.316 732.505C690.294 733.97 680.44 735.617 676.422 738.637C676.134 738.854 675.632 740.068 675.424 740.444C676.275 741.483 677.013 742.566 678.23 743.196C698.095 737.437 762.572 719.618 777 709.306L777.883 707.369C776.949 705.922 776.44 705.165 774.824 704.498ZM770.706 722.147C760.771 725.288 750.579 727.458 740.609 730.484C721.299 736.346 702.113 742.941 682.683 748.383C672.519 751.23 661.941 752.779 651.86 755.883C649.414 756.636 647.239 757.141 645.51 759.121L646.188 760.994C647.936 761.679 648.352 761.909 650.271 761.629C670.706 756.819 691.031 751.796 711.123 745.691C721.982 742.392 732.561 738.231 743.438 735.036C753.306 732.136 766.934 730.556 775.854 725.836L776.509 724.203C775.259 722.721 774.547 721.706 772.375 721.78C771.651 721.805 771.345 721.942 770.706 722.147ZM595.77 726.2C586.14 728.987 527.011 743.479 523.773 747.799L523.989 749.621C525.037 750.358 525.907 751.095 527.22 751.252C538.207 747.715 595.994 734.706 599.754 728.898C599.269 727.562 599.508 727.208 598.148 726.584C597.261 726.177 596.757 726.052 595.77 726.2ZM601.675 736.131C591.386 739.438 546.627 751.764 540.619 756.102L539.939 758.047C540.569 759.085 541.083 760.207 542.157 760.842C552.904 757.871 597.404 746.236 603.292 740.249L603.482 738.219L601.675 736.131ZM609.934 750.196C591.404 755.375 467.423 783.601 461.704 789.029C461.811 791.203 461.582 791.24 463.276 792.799C482.122 787.817 607.102 759.205 612.04 754.37L612.464 752.584C611.717 751.616 611.131 750.627 609.934 750.196ZM572.372 770.946C560.444 774.976 493.402 791.35 489.247 795.347L489.14 797.402C490.781 798.85 491.071 799.027 493.225 799.373C507.67 794.737 570.077 780.407 576.642 773.253L576.733 771.991C575.354 771.59 573.798 770.968 572.372 770.946ZM558.045 786.999C548.364 790.491 507.494 801.833 503.538 808.726C504.771 810.572 505.391 810.727 507.582 811.147C507.795 811.188 508.013 811.198 508.228 811.223C516.98 807.902 558.464 794.731 562.161 789.597L561.515 787.7C560.345 787.245 559.32 786.679 558.045 786.999ZM465.272 799.142C458.897 800.821 446.958 802.49 442.409 807.457L442.676 808.997C443.892 809.571 444.892 810.118 446.236 810.32C451.256 808.944 465.289 806.44 468.038 801.878C468.118 801.745 468.183 801.603 468.255 801.466L467.659 799.597L465.272 799.142ZM460.471 815.791C452.093 819.919 426.281 827.332 421.724 833.477L421.82 835.018C423.791 836.133 424.022 836.227 426.268 836.022C434.143 832.857 459.248 824.787 463.598 819.3L463.356 817.413C462.355 816.673 461.703 816.104 460.471 815.791ZM390.271 836.72C387.144 838.26 384.642 839.132 383.236 842.612C382.958 843.297 382.98 843.791 382.986 844.518L383.462 845.353C384.645 845.48 386.174 845.845 387.331 845.641C390.464 844.294 392.628 843.389 394.628 840.494L394.381 838.56C393.074 837.796 391.81 836.862 390.271 836.72Z"/>
</svg>
